<svg xmlns="http://www.w3.org/2000/svg" width="375" viewBox="0 0 375 375" height="375" version="1.0"><defs><clipPath id="a"><path d="M 155 49.089844 L 220 49.089844 L 220 191 L 155 191 Z M 155 49.089844"/></clipPath><clipPath id="b"><path d="M 195 255 L 352.960938 255 L 352.960938 324 L 195 324 Z M 195 255"/></clipPath><clipPath id="c"><path d="M 22.234375 301 L 67 301 L 67 325.257812 L 22.234375 325.257812 Z M 22.234375 301"/></clipPath></defs><path fill="#FFF" d="M 186.636719 144.625 L 186.378906 164.96875 L 188.390625 203.933594 L 189.53125 164.960938 L 188.601562 144.578125 Z M 189.09375 217.84375 L 188.03125 217.84375 L 187.972656 217.3125 L 185.269531 164.996094 L 185.535156 143.542969 L 189.664062 143.4375 L 190.640625 164.949219 L 189.09375 217.84375"/><path fill="#FFF" d="M 211.753906 169.605469 C 212.796875 169.605469 213.792969 169.921875 214.707031 170.546875 C 218.957031 173.417969 220.105469 182.042969 220.15625 182.410156 L 222.890625 214.355469 L 229.21875 167.917969 C 230.226562 150.410156 219.5 146.171875 217.003906 145.421875 L 211.144531 169.644531 C 211.34375 169.625 211.554688 169.605469 211.753906 169.605469 Z M 223.304688 219.46875 L 222.207031 219.390625 L 219.054688 182.523438 C 219.042969 182.46875 217.914062 174.054688 214.089844 171.457031 C 213.015625 170.734375 211.859375 170.535156 210.539062 170.878906 L 209.644531 171.113281 L 216.175781 144.09375 L 216.699219 144.199219 C 216.851562 144.226562 231.519531 147.316406 230.332031 168.03125 L 223.304688 219.46875"/><path fill="#FFF" d="M 211.707031 169.605469 C 212.835938 169.605469 213.898438 169.949219 214.867188 170.640625 C 219.023438 173.601562 220.078125 181.957031 220.117188 182.308594 L 222.460938 209.566406 L 223.402344 176.472656 C 223.410156 176.371094 224.199219 166.371094 220.164062 164.03125 C 218.445312 163.035156 215.988281 163.585938 212.863281 165.691406 L 211.394531 169.617188 C 211.496094 169.605469 211.601562 169.605469 211.707031 169.605469 Z M 222.195312 219.363281 L 219.015625 182.421875 C 219.007812 182.363281 217.980469 174.214844 214.222656 171.542969 C 213.148438 170.78125 211.980469 170.546875 210.660156 170.832031 L 209.675781 171.046875 L 211.953125 164.96875 L 212.09375 164.875 C 215.675781 162.425781 218.570312 161.820312 220.714844 163.070312 C 225.308594 165.738281 224.558594 175.921875 224.503906 176.550781 L 223.296875 219.324219 L 222.195312 219.363281"/><path fill="#FFF" d="M 158.015625 144.796875 C 155.480469 145.527344 144.828125 149.6875 145.984375 167.445312 L 152.699219 213.777344 L 155.167969 181.832031 C 155.214844 181.445312 156.285156 172.8125 160.511719 169.902344 C 161.601562 169.160156 162.789062 168.847656 164.070312 168.980469 Z M 152.328125 218.945312 L 152.308594 218.832031 L 144.886719 167.558594 C 143.519531 146.816406 158.164062 143.601562 158.308594 143.570312 L 158.832031 143.46875 L 165.578125 170.433594 L 164.6875 170.203125 C 163.367188 169.882812 162.21875 170.082031 161.148438 170.8125 C 157.332031 173.449219 156.285156 181.859375 156.265625 181.9375 L 153.417969 218.851562 L 153 218.8125 L 152.328125 218.945312"/><path fill="#FFF" d="M 156.933594 162.9375 C 156.210938 162.9375 155.574219 163.101562 155.015625 163.433594 C 150.988281 165.8125 151.863281 175.800781 151.871094 175.90625 L 151.871094 175.933594 L 153.078125 208.988281 L 155.195312 181.738281 C 155.242188 181.359375 156.230469 172.992188 160.359375 170.003906 C 161.414062 169.246094 162.617188 168.886719 163.824219 168.953125 L 162.3125 165.035156 C 160.207031 163.640625 158.402344 162.9375 156.933594 162.9375 Z M 153.429688 218.785156 L 152.328125 218.757812 L 150.769531 175.988281 C 150.714844 175.363281 149.867188 165.1875 154.445312 162.484375 C 156.582031 161.214844 159.496094 161.792969 163.082031 164.210938 L 163.226562 164.316406 L 165.5625 170.367188 L 164.5625 170.15625 C 163.234375 169.882812 162.078125 170.128906 161.015625 170.898438 C 157.273438 173.609375 156.316406 181.757812 156.304688 181.84375 L 153.429688 218.785156"/><path fill="#FFF" d="M 174.75 207.554688 C 175.878906 209.480469 179.488281 210.863281 184.28125 211.179688 C 190.632812 211.613281 196.667969 210.066406 198.585938 207.582031 C 197.949219 206.253906 195.207031 200.699219 193.992188 199.171875 L 179.6875 199.132812 C 178.375 201.066406 175.347656 206.398438 174.75 207.554688 Z M 186.285156 212.355469 C 185.582031 212.355469 184.886719 212.335938 184.214844 212.289062 C 178.746094 211.925781 174.789062 210.25 173.628906 207.8125 C 173.316406 207.15625 178.878906 198.335938 178.9375 198.261719 L 179.105469 198.023438 L 194.496094 198.0625 L 194.65625 198.242188 C 194.722656 198.308594 200.152344 207.164062 199.699219 207.933594 C 197.742188 210.941406 191.808594 212.355469 186.285156 212.355469"/><path fill="#FFF" d="M 179.621094 198.03125 L 193.933594 198.070312 C 195.148438 196.277344 197.238281 192.53125 198.550781 190.179688 L 175.28125 190.121094 L 175.558594 190.671875 C 176.6875 192.949219 178.539062 196.695312 179.621094 198.03125 Z M 194.515625 199.179688 L 179.125 199.140625 L 178.957031 198.960938 C 177.796875 197.699219 175.851562 193.765625 174.558594 191.164062 L 173.488281 189.011719 L 200.4375 189.078125 L 199.582031 190.605469 C 198.207031 193.070312 195.917969 197.1875 194.683594 198.941406 L 194.515625 199.179688"/><g clip-path="url(#a)"><path fill="#FFF" d="M 174.910156 189.304688 C 177.265625 189.875 179.847656 189.675781 182.589844 189.488281 C 184.035156 189.371094 185.523438 189.269531 187.042969 189.269531 C 187.0625 189.269531 187.089844 189.269531 187.121094 189.269531 C 188.5625 189.269531 189.96875 189.355469 191.324219 189.4375 C 194.066406 189.609375 196.660156 189.769531 199.109375 189.210938 C 203.921875 182.921875 208.507812 173.125 211.707031 162.304688 C 216.605469 145.429688 218.882812 129.476562 218.503906 114.917969 C 218.425781 111.875 218.191406 108.773438 217.808594 105.710938 C 216.386719 94.222656 213.328125 84.039062 208.714844 75.445312 C 201.777344 62.496094 194.78125 54.019531 188.476562 50.898438 C 181.878906 53.820312 172.539062 64.335938 169.378906 70.132812 C 169.167969 70.511719 168.960938 70.902344 168.761719 71.289062 C 158.859375 90.125 155.070312 112.128906 157.816406 134.894531 C 158.953125 144.367188 160.765625 153.539062 163.226562 162.179688 C 166.910156 174.878906 170.734375 183.757812 174.910156 189.304688 Z M 178.566406 190.796875 C 177.152344 190.796875 175.773438 190.683594 174.445312 190.332031 L 174.257812 190.285156 L 174.140625 190.132812 C 169.832031 184.480469 165.910156 175.441406 162.152344 162.484375 C 159.683594 153.785156 157.851562 144.558594 156.714844 135.035156 C 153.941406 112.035156 157.765625 89.8125 167.773438 70.777344 C 167.980469 70.378906 168.191406 69.992188 168.398438 69.601562 C 171.675781 63.609375 181.453125 52.644531 188.269531 49.769531 L 188.496094 49.675781 L 188.722656 49.789062 C 195.3125 52.917969 202.5625 61.605469 209.695312 74.914062 C 214.375 83.628906 217.476562 93.949219 218.910156 105.578125 C 219.300781 108.679688 219.539062 111.808594 219.613281 114.890625 C 220.003906 129.574219 217.695312 145.621094 212.777344 162.617188 C 209.503906 173.65625 204.804688 183.652344 199.867188 190.035156 L 199.746094 190.199219 L 199.566406 190.246094 C 196.886719 190.890625 194.152344 190.71875 191.257812 190.550781 C 189.910156 190.464844 188.523438 190.378906 187.109375 190.378906 C 187.089844 190.378906 187.0625 190.378906 187.042969 190.378906 C 185.570312 190.378906 184.089844 190.484375 182.667969 190.585938 C 181.261719 190.691406 179.894531 190.796875 178.566406 190.796875"/></g><path fill="#FFF" d="M 199.433594 206.636719 L 199.394531 206.398438 L 199.316406 206.398438 C 199.355469 206.472656 199.394531 206.558594 199.433594 206.636719"/><path fill="#FFF" d="M 174.09375 206.332031 L 173.972656 206.332031 L 173.90625 206.699219 C 173.960938 206.585938 174.027344 206.453125 174.09375 206.332031"/><path fill="#FFF" d="M 200.019531 210.648438 C 199.914062 209.800781 199.792969 208.96875 199.660156 208.125 C 198.40625 209.878906 195.796875 211.0625 192.730469 211.738281 C 192.9375 216.101562 192.066406 220.28125 190.148438 223.933594 L 190.015625 224.171875 C 189.371094 225.347656 187.679688 227.207031 186.472656 227.964844 C 185.304688 227.179688 183.957031 225.433594 182.628906 222.957031 C 181.632812 221.089844 180.957031 218.859375 180.644531 216.335938 C 180.570312 215.664062 180.511719 214.992188 180.492188 214.308594 C 180.472656 213.519531 180.503906 212.695312 180.550781 211.851562 C 177.113281 211.148438 174.675781 209.8125 173.6875 208.058594 C 173.058594 211.871094 172.765625 215.523438 172.851562 218.925781 C 172.890625 220.214844 172.984375 221.515625 173.144531 222.785156 C 173.742188 227.59375 175.023438 231.875 176.972656 235.503906 C 179.988281 241.140625 182.980469 244.6875 185.855469 246.050781 L 186.285156 246.261719 L 186.71875 246.070312 C 189.75 244.800781 193.820312 240.171875 195.1875 237.660156 L 195.445312 237.175781 C 199.582031 229.3125 201.160156 220.140625 200.019531 210.648438"/><path fill="#FFF" d="M 210.386719 76.660156 C 210.386719 76.59375 210.40625 76.515625 210.40625 76.449219 C 210.148438 76.15625 209.882812 75.871094 209.597656 75.597656 C 209.484375 75.566406 209.378906 75.539062 209.265625 75.519531 L 209.285156 75.558594 C 203.039062 77.902344 195.777344 79.144531 188.269531 79.144531 L 188.105469 79.144531 C 186.445312 79.132812 184.746094 79.058594 182.90625 78.90625 C 177.019531 78.441406 171.34375 77.179688 166.480469 75.265625 C 166.59375 75.015625 166.710938 74.789062 166.824219 74.554688 C 166.792969 74.589844 166.777344 74.628906 166.746094 74.667969 C 166.246094 75.265625 165.921875 75.945312 165.683594 76.675781 C 170.742188 78.6875 176.648438 80.015625 182.773438 80.507812 C 184.660156 80.660156 186.398438 80.738281 188.105469 80.746094 L 188.269531 80.746094 C 196.070312 80.746094 203.628906 79.4375 210.109375 76.960938 L 210.425781 76.839844 C 210.414062 76.773438 210.386719 76.726562 210.386719 76.660156"/><path fill="#FFF" d="M 187.878906 120.628906 C 184.433594 120.570312 181.234375 119.175781 178.859375 116.710938 C 176.621094 114.386719 175.394531 111.363281 175.359375 108.15625 C 175.71875 101.433594 181.355469 96.109375 188.171875 96.109375 C 188.257812 96.109375 188.335938 96.109375 188.410156 96.109375 C 191.855469 96.175781 195.054688 97.5625 197.429688 100.027344 C 199.667969 102.351562 200.894531 105.378906 200.929688 108.582031 C 200.570312 115.355469 194.835938 120.808594 187.878906 120.628906 Z M 200.582031 96.207031 C 197.410156 92.90625 193.117188 91.046875 188.515625 90.96875 C 187.839844 90.953125 187.1875 90.988281 186.53125 91.046875 L 186.519531 91.046875 C 178.035156 91.863281 171.199219 98.945312 171.011719 107.644531 C 170.914062 112.160156 172.585938 116.445312 175.726562 119.707031 C 178.898438 123 183.1875 124.859375 187.804688 124.945312 C 187.886719 124.945312 187.972656 124.945312 188.050781 124.945312 C 197.390625 124.945312 205.097656 117.519531 205.296875 108.261719 C 205.394531 103.746094 203.722656 99.46875 200.582031 96.207031"/><path fill="#FFF" d="M 102.632812 272.78125 C 84.035156 272.78125 68.144531 285.640625 64.148438 303.613281 L 66.132812 303.613281 C 70.089844 286.742188 85.089844 274.695312 102.632812 274.695312 C 103.628906 274.695312 104.625 274.753906 105.613281 274.839844 C 105.746094 274.183594 105.953125 273.558594 106.21875 272.949219 C 105.035156 272.835938 103.835938 272.78125 102.632812 272.78125"/><g clip-path="url(#b)"><path fill="#FFF" d="M 210.015625 255.785156 C 225.539062 255.785156 239.558594 264.832031 245.957031 278.898438 C 261.933594 275.152344 277.777344 281.648438 286.910156 294.347656 C 294.199219 287.726562 303.578125 284.09375 313.433594 284.09375 C 318.863281 284.09375 324.28125 285.214844 329.257812 287.394531 C 334.078125 289.511719 338.464844 292.601562 342.09375 296.425781 C 345.726562 300.257812 348.585938 304.808594 350.445312 309.75 C 351.273438 311.953125 351.898438 314.21875 352.304688 316.523438 C 352.523438 317.691406 352.675781 318.855469 352.78125 320.042969 C 352.875 321.066406 353.273438 322.820312 352.390625 323.589844 C 352.296875 323.683594 352.183594 323.75 352.058594 323.796875 C 350.617188 324.308594 350.957031 321.378906 350.902344 320.648438 C 350.796875 319.28125 350.617188 317.925781 350.359375 316.578125 C 349.867188 313.953125 349.078125 311.371094 348.035156 308.917969 C 345.984375 304.089844 342.898438 299.707031 339.0625 296.132812 C 335.21875 292.535156 330.625 289.765625 325.648438 288.050781 C 321.730469 286.703125 317.582031 286.019531 313.433594 286.019531 C 303.703125 286.019531 294.464844 289.738281 287.421875 296.5 L 286.597656 297.296875 L 285.960938 296.347656 C 277.246094 283.488281 261.476562 276.914062 245.644531 280.964844 L 244.847656 281.164062 L 244.523438 280.414062 C 238.589844 266.613281 225.042969 257.710938 210.015625 257.710938 C 205.0625 257.710938 200.304688 258.714844 195.910156 260.507812 C 195.929688 259.832031 195.917969 259.160156 195.863281 258.476562 C 200.296875 256.761719 205.0625 255.785156 210.015625 255.785156"/></g><path fill="#FFF" d="M 252.859375 313.289062 L 253.683594 312.492188 C 257.605469 308.726562 262.75 306.648438 268.160156 306.648438 C 268.691406 306.648438 269.128906 306.222656 269.128906 305.691406 C 269.128906 305.160156 268.691406 304.722656 268.160156 304.722656 C 262.617188 304.722656 257.339844 306.714844 253.171875 310.359375 C 247.902344 303.339844 239.035156 299.746094 230.085938 301.71875 C 226.316406 293.75 218.292969 288.648438 209.4375 288.648438 C 199.382812 288.648438 190.507812 295.269531 187.59375 304.820312 L 165.457031 304.734375 L 165.445312 304.734375 C 164.914062 304.734375 164.488281 305.167969 164.488281 305.691406 C 164.488281 306.230469 164.914062 306.660156 165.445312 306.660156 L 187.460938 306.734375 L 187.488281 306.878906 L 188.390625 306.746094 L 189.445312 306.746094 L 189.332031 305.777344 C 191.867188 296.8125 200.085938 290.574219 209.4375 290.574219 C 217.800781 290.574219 225.339844 295.542969 228.640625 303.214844 L 228.972656 303.976562 L 229.769531 303.765625 C 238.589844 301.507812 247.363281 305.167969 252.222656 312.339844 L 252.859375 313.289062"/><path fill="#FFF" d="M 138.488281 293.304688 C 138.050781 293.304688 137.660156 293.011719 137.546875 292.566406 C 136.929688 290.050781 137.355469 287.339844 138.695312 285.308594 C 140.15625 283.097656 142.738281 281.742188 145.246094 281.820312 C 147.980469 281.914062 150.457031 283.726562 151.265625 286.230469 C 151.425781 286.730469 151.152344 287.273438 150.648438 287.433594 C 150.144531 287.605469 149.59375 287.328125 149.433594 286.816406 C 148.882812 285.109375 147.085938 283.8125 145.179688 283.746094 C 143.347656 283.667969 141.402344 284.710938 140.308594 286.371094 C 139.253906 287.957031 138.933594 290.097656 139.417969 292.109375 C 139.550781 292.632812 139.238281 293.152344 138.714844 293.277344 C 138.640625 293.296875 138.5625 293.304688 138.488281 293.304688"/><path fill="#FFF" d="M 105.242188 282.101562 C 104.824219 282.101562 104.445312 281.835938 104.320312 281.429688 C 103.382812 278.40625 103.6875 275.066406 105.148438 272.257812 C 107.035156 268.644531 110.671875 266.347656 114.867188 266.132812 C 119.054688 265.921875 122.878906 267.800781 125.121094 271.1875 C 126.828125 273.765625 127.398438 276.914062 126.894531 281.109375 C 126.828125 281.628906 126.363281 282.007812 125.824219 281.941406 C 125.300781 281.886719 124.921875 281.402344 124.988281 280.871094 C 125.425781 277.171875 124.960938 274.429688 123.515625 272.25 C 121.65625 269.441406 118.457031 267.867188 114.964844 268.058594 C 111.460938 268.238281 108.433594 270.144531 106.855469 273.148438 C 105.632812 275.511719 105.375 278.320312 106.164062 280.859375 C 106.316406 281.363281 106.03125 281.902344 105.527344 282.066406 C 105.433594 282.09375 105.335938 282.101562 105.242188 282.101562"/><path fill="#FFF" d="M 205.972656 284.066406 C 205.859375 284.066406 205.746094 284.046875 205.628906 284.011719 C 205.136719 283.820312 204.878906 283.269531 205.070312 282.765625 C 206.53125 278.886719 210.292969 275.957031 214.421875 275.472656 C 218.550781 275 222.871094 277.011719 225.175781 280.460938 C 225.472656 280.910156 225.355469 281.507812 224.910156 281.800781 C 224.464844 282.09375 223.867188 281.96875 223.574219 281.535156 C 221.65625 278.660156 218.066406 277 214.640625 277.390625 C 211.203125 277.789062 208.089844 280.214844 206.875 283.449219 C 206.722656 283.828125 206.363281 284.066406 205.972656 284.066406"/><path fill="#FFF" d="M 161.15625 271.480469 C 158.117188 269.800781 154.539062 268.691406 150.875 268.472656 C 142.910156 268.007812 131.441406 270.617188 125.300781 279.476562 C 124.996094 279.914062 125.109375 280.511719 125.546875 280.8125 C 125.71875 280.925781 125.910156 280.984375 126.097656 280.984375 C 126.402344 280.984375 126.695312 280.84375 126.886719 280.566406 C 132.203125 272.894531 142.722656 269.945312 150.761719 270.398438 C 154.40625 270.609375 158.0625 271.792969 160.996094 273.578125 C 161.082031 272.882812 161.136719 272.183594 161.15625 271.480469"/><path fill="#FFF" d="M 163.996094 275.066406 C 163.414062 275.066406 162.835938 274.855469 162.363281 274.476562 C 161.402344 273.730469 160.160156 273.035156 158.753906 272.484375 L 159.484375 270.644531 C 161.0625 271.261719 162.484375 272.050781 163.585938 272.921875 C 163.757812 273.066406 163.964844 273.113281 164.15625 273.054688 C 164.347656 273.007812 164.488281 272.867188 164.574219 272.65625 C 165.246094 270.902344 166.632812 269.28125 168.371094 268.191406 C 171.683594 266.101562 175.859375 265.960938 179.277344 267.828125 C 179.554688 267.972656 179.828125 268.160156 180.105469 268.359375 C 181.007812 268.996094 181.074219 268.929688 181.214844 268.796875 C 186.804688 263.503906 193.042969 258.402344 200.828125 256.960938 L 201.1875 258.902344 C 193.917969 260.261719 187.945312 265.144531 182.582031 270.238281 C 181.195312 271.554688 179.734375 270.53125 178.957031 269.972656 C 178.746094 269.832031 178.539062 269.679688 178.328125 269.566406 C 175.546875 268.046875 172.128906 268.160156 169.425781 269.867188 C 168.046875 270.730469 166.945312 272.011719 166.425781 273.367188 C 166.113281 274.164062 165.476562 274.753906 164.667969 274.972656 C 164.449219 275.027344 164.222656 275.066406 163.996094 275.066406"/><g clip-path="url(#c)"><path fill="#FFF" d="M 64.335938 302.648438 L 64.234375 303.128906 C 56.203125 300 46.726562 300.511719 38.621094 304.5625 C 30.382812 308.667969 24.496094 315.394531 22.234375 323.171875 L 22.234375 324.925781 L 23.746094 325.257812 C 25.484375 317.367188 31.226562 310.460938 39.503906 306.335938 C 47.476562 302.351562 56.839844 302.011719 64.554688 305.40625 L 65.675781 305.898438 L 66.273438 303.054688 L 64.335938 302.648438"/></g></svg>