<svg width="201" height="188" viewBox="0 0 201 188" fill="none" xmlns="http://www.w3.org/2000/svg">
<path fill-rule="evenodd" clip-rule="evenodd" d="M151.276 142.456C153.42 143.435 154.836 145.841 154.363 148.122C154.206 149.523 153.224 150.795 151.848 151.278C148.498 152.998 144.741 153.693 141.132 154.719C139.827 155.077 138.447 155.146 137.107 154.913C134.699 154.667 132.296 154.382 129.888 154.132C128.405 153.856 126.775 153.21 126.163 151.761C125.73 150.812 126.065 149.601 126.945 148.993C128.204 147.807 130 147.484 131.563 146.815C133.774 145.97 136.03 145.25 138.3 144.569C139.818 144.034 141.275 143.344 142.65 142.534C144.383 141.71 146.376 141.736 148.261 141.814C149.288 141.896 150.32 142.06 151.276 142.456V142.456Z" fill="white" stroke="#252F71" stroke-width="4.0899" stroke-linejoin="round"/>
<path fill-rule="evenodd" clip-rule="evenodd" d="M177.895 140.792C178.833 141.232 179.749 141.762 180.401 142.569C181.174 143.504 181.732 144.763 181.343 145.966C180.825 147.139 179.691 148.135 178.333 148.238C177.064 148.476 175.733 148.562 174.567 149.153C173.464 149.627 172.503 150.343 171.436 150.877C168.961 152.442 166.187 153.464 163.449 154.499C160.139 155.775 156.811 157.013 153.394 158C150.075 158.992 146.787 160.139 143.348 160.669C140.904 160.915 138.215 160.281 136.487 158.518C135.803 157.457 136.384 156.069 137.34 155.361C138.649 154.322 140.382 154.077 141.941 153.555C146.443 152.205 150.977 150.92 155.368 149.256C157.704 148.04 159.938 146.643 162.153 145.229C164.061 143.827 165.834 142.142 168.126 141.331C170.109 140.538 172.182 139.503 174.393 139.843C175.604 139.973 176.769 140.365 177.895 140.792L177.895 140.792Z" fill="white" stroke="#252F71" stroke-width="4.0899" stroke-linejoin="round"/>
<path fill-rule="evenodd" clip-rule="evenodd" d="M191.784 145.569C189.823 145.932 188.299 147.303 186.968 148.652C183.408 152.197 180.549 156.31 177.266 160.079C175.43 162.286 172.817 163.679 170.664 165.55C169.972 166.132 169.436 167.055 169.713 167.956C169.945 168.758 170.852 169.28 171.696 169.125C172.558 168.987 173.34 168.573 174.188 168.366C175.872 167.805 177.543 167.128 178.999 166.119C181.322 164.852 183.931 164.226 186.366 163.196C187.581 162.73 188.764 162.196 189.935 161.631C192.07 160.665 194.325 159.846 196.184 158.41C197.613 157.306 198.953 155.944 199.454 154.197C200.101 152.227 199.869 149.899 198.502 148.256C197.452 147.066 195.956 146.32 194.433 145.863C193.571 145.626 192.682 145.5 191.784 145.569L191.784 145.569Z" fill="white" stroke="#252F71" stroke-width="4.0899" stroke-linejoin="round"/>
<path fill-rule="evenodd" clip-rule="evenodd" d="M188.769 142.129C190.22 142.625 191.788 143.504 192.208 145.048C191.976 147.286 191.297 149.454 190.341 151.498C189.653 153.046 188.773 154.503 187.906 155.961C185.968 159.1 183.471 161.89 180.643 164.309C178.588 166.081 176.355 167.659 173.983 169.017C169.717 171.578 165.281 173.859 160.868 176.17C157.947 177.641 154.927 178.969 151.724 179.771C148.807 180.547 145.756 180.655 142.75 180.814C135.196 181.146 127.652 181.685 120.111 182.215C114.05 182.651 108.055 183.686 102.043 184.505C99.6038 184.794 97.147 185.307 94.6858 184.962C92.6087 184.721 90.719 183.781 88.7894 183.061C86.2343 182.039 83.706 180.905 80.9993 180.305C73.8121 178.503 66.5801 176.856 59.4418 174.881C52.8711 173.113 46.3268 171.234 39.7158 169.621C37.5583 169.099 35.3652 168.741 33.1585 168.483C27.91 167.732 22.5985 167.5 17.3457 166.788C16.0905 166.542 14.7906 166.003 14.0938 164.908C13.4237 163.99 13.0753 162.877 12.7805 161.795C12.3472 159.833 12.1551 157.647 13.2004 155.823C14.1027 154.344 16.0011 153.676 17.7166 153.861C21.3571 154.055 25.0424 154.633 28.6652 153.952C32.7344 153.34 36.7458 152.426 40.7661 151.589C43.6563 150.882 46.5999 150.395 49.5751 150.205C52.1301 150.033 54.6986 149.709 57.258 149.951C59.2637 150.201 61.0638 151.136 62.8553 151.982C64.6599 152.602 66.5941 152.542 68.4746 152.727C70.1765 152.999 71.8203 153.529 73.4775 153.982C74.7774 154.362 76.0907 154.754 77.4443 154.883C78.7174 155.09 80.0217 155.034 81.2948 155.233C82.4115 155.302 83.497 155.634 84.5065 156.078C87.3654 157.056 90.3939 157.457 93.226 158.505C95.5131 159.316 97.8226 160.062 100.185 160.631C101.548 160.976 102.843 161.519 104.179 161.942C107.672 162.804 111.165 163.684 114.667 164.524C118.464 165.395 122.261 166.262 126.04 167.198C128.742 167.888 131.355 168.853 134.013 169.686C135.925 170.246 137.913 170.841 139.932 170.66C140.924 170.526 142.076 170.052 142.313 169.009C142.996 166.749 141.737 164.429 142.259 162.149C142.282 161.398 142.831 160.894 143.501 160.609C144.85 160.057 146.329 159.902 147.691 159.393C153.016 157.768 158.296 156.017 163.54 154.163C166.081 153.189 168.391 151.732 170.508 150.072C174.193 147.385 177.798 144.552 181.867 142.414C183.659 141.603 185.754 141.181 187.688 141.771C188.054 141.866 188.407 142.013 188.769 142.129L188.769 142.129Z" fill="white" stroke="#252F71" stroke-width="4.0899" stroke-linejoin="round"/>
<path fill-rule="evenodd" clip-rule="evenodd" d="M54.3193 113.979C59.997 116.416 65.7905 118.649 71.2045 121.615C74.2375 123.366 77.1588 125.289 79.9685 127.359C81.9608 128.682 83.5376 130.519 85.6103 131.739C87.4328 132.783 89.6216 132.977 91.4574 133.998C93.4586 134.943 95.4955 135.891 97.7022 136.297C99.346 136.629 100.985 137.03 102.518 137.72C104.474 138.513 106.404 139.384 108.45 139.949C111.143 140.807 113.832 141.686 116.553 142.467C120.819 143.881 124.544 146.403 128.48 148.46C132.679 150.927 136.895 153.531 140.187 157.097C141.693 158.808 142.948 160.805 143.377 163.034C143.721 164.672 143.622 166.393 143.162 167.997C142.586 169.734 141.711 171.588 139.973 172.498C139.012 172.99 137.815 173.033 136.819 172.606C133.165 171.528 129.677 169.989 126.081 168.747C123.289 167.686 120.403 166.846 117.478 166.207C110.867 164.862 104.349 163.133 97.7961 161.534C90.3989 159.705 83.006 157.864 75.5509 156.265C68.136 154.734 60.7474 153.04 53.2564 151.897C49.9822 151.513 46.6589 151.539 43.398 152.013C40.5704 152.384 37.7562 152.945 35.0313 153.786C33.2936 154.389 31.3952 154.833 29.9972 156.062C28.742 157.248 28.2462 158.93 27.5582 160.439C26.7051 162.336 25.9904 164.423 24.3644 165.85C23.2477 166.816 21.7021 166.979 20.2683 167.079C17.2174 167.355 14.1485 167.182 11.0976 167.053C9.60563 166.833 8.75244 165.363 8.58719 164.026C8.23877 160.904 8.0288 157.765 7.74295 154.635C7.28286 149.525 6.97017 144.39 6.09018 139.324C5.52734 136.111 4.59375 132.977 3.54402 129.885C2.73549 127.423 1.92254 124.957 1.23461 122.46C1.05147 121.602 1.68576 120.779 2.50324 120.49C4.37486 119.662 6.38947 119.205 8.32829 118.554C16.7573 115.976 25.1331 113.225 33.7004 111.112C36.8183 110.396 40.1017 110.362 43.2282 111.06C46.7749 111.668 50.1966 112.794 53.6585 113.746C53.8774 113.824 54.1008 113.902 54.3196 113.979L54.3193 113.979Z" fill="white"/>
<path fill-rule="evenodd" clip-rule="evenodd" d="M5.92718 121.141C7.12431 121.642 7.6648 122.387 7.83455 122.965C8.17403 123.703 8.53584 124.444 8.62968 125.138C8.95577 126.221 8.9781 127.247 9.20592 128.307C9.58561 129.765 10.077 131.239 10.7068 132.74C11.0463 133.594 11.6672 134.486 12.1139 135.353C12.6857 136.004 13.0966 136.702 14.2044 137.302C15.3122 137.836 16.5674 137.966 17.5769 137.953C19.2655 138.004 20.9003 137.987 22.4191 137.862C23.6743 137.785 24.9652 137.741 26.2785 137.72C28.6371 137.621 30.924 137.448 33.2828 137.345C34.7613 137.362 36.0657 137.185 37.6693 137.349C39.0228 137.418 40.4432 137.565 41.8548 137.733C43.1592 137.935 44.4456 138.082 45.7545 138.319C47.3447 138.707 48.9171 138.936 50.5119 139.354C52.1646 139.738 53.9335 140.152 55.3985 140.919C57.766 142.032 60.2363 143.092 62.3444 144.351C63.354 144.925 64.4439 145.567 64.7209 146.227C65.373 147.266 65.1541 148.154 65.3239 149.103C65.4624 149.78 66.4451 150.547 67.5931 151.168C68.8126 151.862 69.9963 152.582 70.9389 153.35C71.6937 153.889 72.3147 154.445 72.7167 155.001C73.2929 155.752 73.5967 156.472 73.7798 157.17C74.1104 157.92 74.423 158.671 74.4454 159.365C74.5481 160.18 74.633 160.995 74.6196 161.779C74.4767 162.327 74.0657 162.775 73.5118 163.159C72.3147 164.237 71.2516 165.375 70.0812 166.462C69.3754 167.122 67.8031 167.316 66.6774 167.747C64.8773 168.139 62.952 168.445 61.0045 168.734C59.7314 168.82 58.4583 168.924 56.9754 168.786C55.4344 168.678 53.8575 168.527 52.2582 168.329C50.7172 168.092 49.1984 167.958 47.608 167.536C44.7135 166.885 41.8145 166.1 38.9154 165.423C37.4011 165.078 35.8734 164.642 34.3724 164.366C32.7062 164.185 31.2545 164.379 30.4817 164.905C29.5169 165.302 28.6547 165.751 27.6184 166.104C26.7831 166.402 25.778 166.596 24.6836 166.703C23.4329 166.682 22.1911 166.678 20.8332 166.514C19.846 166.466 18.9124 165.932 18.1217 165.496C17.3043 164.914 15.8883 164.617 15.2986 164.944C14.7447 165.22 14.3427 165.582 14.0345 165.97C13.1233 166.432 11.6625 166.548 10.1885 166.591C8.93324 166.44 7.8478 165.578 7.7942 165.026C7.22242 163.771 6.69982 162.517 6.36927 161.296C6.29333 160.473 6.01192 159.606 6.01192 158.8C5.92258 157.2 5.63669 155.553 5.53842 153.953C5.29274 151.556 5.12748 149.18 4.82818 146.77C4.61824 145.438 4.31004 144.08 4.15369 142.756C3.80974 140.294 3.27816 137.789 2.89846 135.318C2.42052 132.959 2.17483 130.648 1.83088 128.316C1.51819 127.001 1.37524 125.72 0.915147 124.375C0.727535 123.689 0.508654 122.999 0.4104 122.335C0.548874 121.874 1.12959 121.594 1.71473 121.326C2.58132 121.141 3.18436 120.71 4.40384 120.822C4.81928 120.813 5.48482 120.951 5.92706 121.141L5.92718 121.141Z" fill="white"/>
<path d="M145.786 0.147423C165.073 0.535461 181.851 12.2165 187.929 31.9939C198.198 83.3924 138.984 105.018 106.367 135.734C78.0535 100.186 22.6205 91.0003 25.3911 38.4225C27.7982 26.6977 34.5863 17.1525 43.688 10.4393C55.884 1.43277 72.8724 -1.66287 87.3878 3.7193C95.1539 6.36516 102.227 10.962 107.513 17.0555C116.699 6.12718 131.22 -0.156129 145.781 0.150848L145.786 0.147423Z" fill="white"/>
</svg>
