<svg width="586" height="383" viewBox="0 0 586 383" fill="none" xmlns="http://www.w3.org/2000/svg">
<g clip-path="url(#clip0_51_135)">
<path d="M586 0H0V383.225H586V0Z" fill="#B4C6F0"/>
<path fill-rule="evenodd" clip-rule="evenodd" d="M293 85.7579C235.986 85.7578 181.308 107.962 140.993 147.485C100.678 187.009 78.0294 240.614 78.0293 296.509H507.971C507.97 240.614 485.322 187.009 445.007 147.485C404.692 107.962 350.014 85.7578 293 85.7579Z" fill="black" fill-opacity="0.0280374"/>
<path d="M211.505 162.607C212.891 162.607 214.014 161.506 214.014 160.147C214.014 158.788 212.891 157.687 211.505 157.687C210.119 157.687 208.996 158.788 208.996 160.147C208.996 161.506 210.119 162.607 211.505 162.607Z" fill="white"/>
<path d="M280.373 132.266C281.759 132.266 282.883 131.164 282.883 129.806C282.883 128.447 281.759 127.345 280.373 127.345C278.987 127.345 277.864 128.447 277.864 129.806C277.864 131.164 278.987 132.266 280.373 132.266Z" fill="white"/>
<path d="M466.067 232.858C466.837 232.858 467.462 232.246 467.462 231.491C467.462 230.736 466.837 230.124 466.067 230.124C465.298 230.124 464.673 230.736 464.673 231.491C464.673 232.246 465.298 232.858 466.067 232.858Z" fill="white"/>
<path d="M360.116 136.639C360.886 136.639 361.51 136.027 361.51 135.273C361.51 134.518 360.886 133.906 360.116 133.906C359.346 133.906 358.722 134.518 358.722 135.273C358.722 136.027 359.346 136.639 360.116 136.639Z" fill="white"/>
<path d="M217.918 117.505C218.687 117.505 219.312 116.893 219.312 116.138C219.312 115.383 218.687 114.771 217.918 114.771C217.148 114.771 216.523 115.383 216.523 116.138C216.523 116.893 217.148 117.505 217.918 117.505Z" fill="white"/>
<path d="M113.639 253.632C114.409 253.632 115.033 253.02 115.033 252.266C115.033 251.511 114.409 250.899 113.639 250.899C112.869 250.899 112.245 251.511 112.245 252.266C112.245 253.02 112.869 253.632 113.639 253.632Z" fill="white"/>
<path d="M463.279 139.373C464.049 139.373 464.673 138.761 464.673 138.006C464.673 137.251 464.049 136.639 463.279 136.639C462.509 136.639 461.885 137.251 461.885 138.006C461.885 138.761 462.509 139.373 463.279 139.373Z" fill="white"/>
<path d="M224.052 214.27C224.822 214.27 225.446 213.658 225.446 212.903C225.446 212.149 224.822 211.537 224.052 211.537C223.282 211.537 222.658 212.149 222.658 212.903C222.658 213.658 223.282 214.27 224.052 214.27Z" fill="white"/>
<path d="M156.089 123.787C156.859 123.787 157.483 123.175 157.483 122.42C157.483 121.665 156.859 121.053 156.089 121.053C155.319 121.053 154.695 121.665 154.695 122.42C154.695 123.175 155.319 123.787 156.089 123.787Z" fill="white"/>
<path fill-rule="evenodd" clip-rule="evenodd" d="M169.69 149.142L168.258 158.236L177.026 161.522L167.749 160.118L164.398 168.714L165.83 159.619L157.062 156.333L166.338 157.737L169.69 149.142Z" fill="white"/>
<path fill-rule="evenodd" clip-rule="evenodd" d="M480.516 159.979L479.302 166.71L484.92 170.758L478.054 169.569L473.925 175.076L475.138 168.345L469.521 164.297L476.386 165.486L480.516 159.979Z" fill="white"/>
<path fill-rule="evenodd" clip-rule="evenodd" d="M314.458 113.899L313.169 117.98L316.395 120.852L312.232 119.589L309.303 122.751L310.591 118.67L307.365 115.798L311.528 117.061L314.458 113.899Z" fill="white"/>
<path fill-rule="evenodd" clip-rule="evenodd" d="M98.9591 274.434L92.3497 277.737L94.2525 284.766L90.8838 278.287L83.7136 280.152L90.323 276.849L88.4202 269.82L91.7889 276.3L98.9591 274.434Z" fill="white"/>
<path fill-rule="evenodd" clip-rule="evenodd" d="M482.754 250.313L479.927 253.608L481.871 257.469L478.51 254.698L474.572 256.603L477.399 253.308L475.455 249.448L478.816 252.219L482.754 250.313Z" fill="white"/>
<path fill-rule="evenodd" clip-rule="evenodd" d="M44.0234 296.509H541.977H44.0234Z" fill="#F6F7FC"/>
<path d="M44.0234 296.509H541.977" stroke="#252F71" stroke-width="4" stroke-linecap="round" stroke-linejoin="round"/>
<path d="M182.113 188.655H128.322C125.972 188.655 124.067 190.523 124.067 192.827V292.338C124.067 294.642 125.972 296.509 128.322 296.509H182.113C184.463 296.509 186.368 294.642 186.368 292.338V192.827C186.368 190.523 184.463 188.655 182.113 188.655Z" fill="#ABABD2"/>
<path d="M433.696 150.747H246.356C242.752 150.747 239.83 153.611 239.83 157.145V281.998C239.83 285.531 242.752 288.395 246.356 288.395H433.696C437.3 288.395 440.222 285.531 440.222 281.998V157.145C440.222 153.611 437.3 150.747 433.696 150.747Z" fill="#ABABD2" stroke="#252F71" stroke-width="4"/>
<path fill-rule="evenodd" clip-rule="evenodd" d="M218.105 279.661C218.105 279.661 218.706 284.302 221.834 289.357C226.008 296.101 232.048 296.509 232.048 296.509H340.026H448.004C448.004 296.509 454.044 296.101 458.218 289.357C461.346 284.302 461.947 279.661 461.947 279.661H340.026H218.105Z" fill="#ABABD2"/>
<path fill-rule="evenodd" clip-rule="evenodd" d="M311.136 279.661C311.136 283.024 313.898 285.731 317.327 285.731H362.725C366.155 285.731 368.916 283.024 368.916 279.661H311.136Z" fill="#C0D2E8"/>
<path fill-rule="evenodd" clip-rule="evenodd" d="M218.105 279.661C218.105 279.661 218.706 284.302 221.834 289.357C226.008 296.101 232.048 296.509 232.048 296.509H340.026H448.004C448.004 296.509 454.044 296.101 458.218 289.357C461.346 284.302 461.947 279.661 461.947 279.661H340.026H218.105V279.661Z" stroke="#252F71" stroke-width="4" stroke-linecap="round" stroke-linejoin="round"/>
<path d="M431.09 157.901H248.962C247.949 157.901 247.128 158.707 247.128 159.7V266.256C247.128 267.249 247.949 268.054 248.962 268.054H431.09C432.103 268.054 432.924 267.249 432.924 266.256V159.7C432.924 158.707 432.103 157.901 431.09 157.901Z" fill="#E0E3F6" stroke="#252F71" stroke-width="4"/>
<path d="M363.77 180.705H277.1C275.454 180.705 274.119 182.013 274.119 183.627V252.187C274.119 253.8 275.454 255.109 277.1 255.109H363.77C365.416 255.109 366.75 253.8 366.75 252.187V183.627C366.75 182.013 365.416 180.705 363.77 180.705Z" fill="#F6F7FC"/>
<path fill-rule="evenodd" clip-rule="evenodd" d="M277.1 180.705C275.448 180.705 274.119 182.008 274.119 183.627V186.48H366.751V183.627C366.751 182.008 365.421 180.705 363.769 180.705H277.1Z" fill="#ABABD2"/>
<path d="M365.468 183.593C365.468 182.693 364.723 181.963 363.805 181.963C362.887 181.963 362.143 182.693 362.143 183.593C362.143 184.493 362.887 185.222 363.805 185.222C364.723 185.222 365.468 184.493 365.468 183.593Z" fill="#E0E3F6"/>
<path d="M360.481 183.593C360.481 182.693 359.737 181.963 358.819 181.963C357.9 181.963 357.156 182.693 357.156 183.593C357.156 184.493 357.9 185.222 358.819 185.222C359.737 185.222 360.481 184.493 360.481 183.593Z" fill="#C0D2E8"/>
<path d="M363.77 180.705H277.1C275.454 180.705 274.119 182.013 274.119 183.627V252.187C274.119 253.8 275.454 255.109 277.1 255.109H363.77C365.416 255.109 366.75 253.8 366.75 252.187V183.627C366.75 182.013 365.416 180.705 363.77 180.705Z" stroke="#ABABD2" stroke-width="2"/>
<path d="M283.749 232.858L298.423 219.983L313.098 228.726L327.772 211.4L342.446 213.626L357.12 200.433" stroke="#ABABD2" stroke-width="2" stroke-linecap="round" stroke-linejoin="round"/>
<path d="M298.423 222.007C299.563 222.007 300.487 221.101 300.487 219.983C300.487 218.866 299.563 217.96 298.423 217.96C297.284 217.96 296.36 218.866 296.36 219.983C296.36 221.101 297.284 222.007 298.423 222.007Z" fill="#ABABD2"/>
<path d="M313.098 230.749C314.237 230.749 315.161 229.843 315.161 228.726C315.161 227.608 314.237 226.703 313.098 226.703C311.958 226.703 311.034 227.608 311.034 228.726C311.034 229.843 311.958 230.749 313.098 230.749Z" fill="#ABABD2"/>
<path d="M327.772 213.423C328.911 213.423 329.835 212.518 329.835 211.4C329.835 210.283 328.911 209.377 327.772 209.377C326.632 209.377 325.708 210.283 325.708 211.4C325.708 212.518 326.632 213.423 327.772 213.423Z" fill="#ABABD2"/>
<path d="M283.749 234.881C284.889 234.881 285.813 233.975 285.813 232.858C285.813 231.741 284.889 230.835 283.749 230.835C282.609 230.835 281.686 231.741 281.686 232.858C281.686 233.975 282.609 234.881 283.749 234.881Z" fill="#ABABD2"/>
<path d="M342.446 215.649C343.586 215.649 344.509 214.743 344.509 213.626C344.509 212.508 343.586 211.602 342.446 211.602C341.306 211.602 340.382 212.508 340.382 213.626C340.382 214.743 341.306 215.649 342.446 215.649Z" fill="#ABABD2"/>
<path d="M357.12 202.456C358.26 202.456 359.184 201.55 359.184 200.433C359.184 199.316 358.26 198.41 357.12 198.41C355.981 198.41 355.057 199.316 355.057 200.433C355.057 201.55 355.981 202.456 357.12 202.456Z" fill="#ABABD2"/>
<path d="M285.775 239.567H281.722C281.386 239.567 281.114 239.833 281.114 240.163V248.587C281.114 248.916 281.386 249.183 281.722 249.183H285.775C286.111 249.183 286.383 248.916 286.383 248.587V240.163C286.383 239.833 286.111 239.567 285.775 239.567Z" fill="#ABABD2" stroke="#C0D2E8" stroke-width="2"/>
<path d="M299.886 232.624H296.961C296.387 232.624 295.922 233.08 295.922 233.643V248.034C295.922 248.596 296.387 249.052 296.961 249.052H299.886C300.459 249.052 300.924 248.596 300.924 248.034V233.643C300.924 233.08 300.459 232.624 299.886 232.624Z" fill="#ABABD2" stroke="#C0D2E8" stroke-width="2.54693"/>
<path d="M314.765 235.203H311.43C310.945 235.203 310.552 235.588 310.552 236.064V248.235C310.552 248.71 310.945 249.096 311.43 249.096H314.765C315.25 249.096 315.644 248.71 315.644 248.235V236.064C315.644 235.588 315.25 235.203 314.765 235.203Z" fill="#ABABD2" stroke="#C0D2E8" stroke-width="2.36314"/>
<path d="M329.265 233.015H326.278C325.718 233.015 325.264 233.461 325.264 234.01V248.064C325.264 248.613 325.718 249.058 326.278 249.058H329.265C329.825 249.058 330.279 248.613 330.279 248.064V234.01C330.279 233.461 329.825 233.015 329.265 233.015Z" fill="#ABABD2" stroke="#C0D2E8" stroke-width="2.52022"/>
<path d="M343.117 222.277H341.775C340.845 222.277 340.091 223.016 340.091 223.928V247.258C340.091 248.169 340.845 248.908 341.775 248.908H343.117C344.047 248.908 344.801 248.169 344.801 247.258V223.928C344.801 223.016 344.047 222.277 343.117 222.277Z" fill="#ABABD2" stroke="#C0D2E8" stroke-width="3.1465"/>
<path d="M357.269 215.203H356.972C355.798 215.203 354.846 216.136 354.846 217.288V246.746C354.846 247.897 355.798 248.83 356.972 248.83H357.269C358.443 248.83 359.395 247.897 359.395 246.746V217.288C359.395 216.136 358.443 215.203 357.269 215.203Z" fill="#ABABD2" stroke="#C0D2E8" stroke-width="3.47495"/>
<path fill-rule="evenodd" clip-rule="evenodd" d="M290.358 193.563C285.219 193.564 281.054 197.649 281.054 202.687C281.054 207.726 285.219 211.811 290.358 211.811C293.638 211.807 296.673 210.11 298.347 207.345L290.358 202.687V193.563Z" fill="#E0E3F6" stroke="#C0D2E8" stroke-width="2" stroke-linecap="round" stroke-linejoin="round"/>
<path fill-rule="evenodd" clip-rule="evenodd" d="M292.304 192.402V201.526L300.293 206.184C301.151 204.775 301.606 203.166 301.61 201.526C301.61 200.328 301.369 199.141 300.901 198.034C300.434 196.927 299.748 195.922 298.884 195.074C298.02 194.227 296.994 193.555 295.865 193.097C294.736 192.638 293.526 192.402 292.304 192.402Z" fill="#E0E3F6" stroke="#C0D2E8" stroke-width="2" stroke-linecap="round" stroke-linejoin="round"/>
<path d="M425.428 162.497H380.373C378.822 162.497 377.564 163.73 377.564 165.251V175.029C377.564 176.55 378.822 177.783 380.373 177.783H425.428C426.979 177.783 428.237 176.55 428.237 175.029V165.251C428.237 163.73 426.979 162.497 425.428 162.497Z" fill="#F6F7FC" stroke="#C0D2E8"/>
<path d="M382.1 165.314C382.1 164.414 381.356 163.684 380.438 163.684C379.52 163.684 378.775 164.414 378.775 165.314C378.775 166.214 379.52 166.944 380.438 166.944C381.356 166.944 382.1 166.214 382.1 165.314Z" fill="#C0D2E8"/>
<path fill-rule="evenodd" clip-rule="evenodd" d="M386.281 170.14H422.587H386.281Z" fill="#F6F7FC"/>
<path d="M386.281 170.14H422.587" stroke="#C0D2E8" stroke-width="3" stroke-linecap="round" stroke-linejoin="round"/>
<path fill-rule="evenodd" clip-rule="evenodd" d="M386.281 166.506H420.672H386.281Z" fill="#F6F7FC"/>
<path d="M386.281 166.506H420.672" stroke="#C0D2E8" stroke-width="3" stroke-linecap="round" stroke-linejoin="round"/>
<path fill-rule="evenodd" clip-rule="evenodd" d="M386.281 173.773H408.307H386.281Z" fill="#F6F7FC"/>
<path d="M386.281 173.773H408.307" stroke="#C0D2E8" stroke-width="3" stroke-linecap="round" stroke-linejoin="round"/>
<path d="M186.368 194.421H124.067V288.038H186.368V194.421Z" fill="#E0E3F6"/>
<path fill-rule="evenodd" clip-rule="evenodd" d="M124.067 194.421H186.368H124.067Z" fill="#E0E3F6"/>
<path d="M124.067 194.421H186.368" stroke="#252F71" stroke-width="4" stroke-linecap="round" stroke-linejoin="round"/>
<path d="M158.298 190.33H152.137C151.456 190.33 150.905 190.871 150.905 191.538C150.905 192.205 151.456 192.746 152.137 192.746H158.298C158.979 192.746 159.53 192.205 159.53 191.538C159.53 190.871 158.979 190.33 158.298 190.33Z" fill="#252F71"/>
<path d="M147.208 192.746C147.888 192.746 148.44 192.205 148.44 191.538C148.44 190.871 147.888 190.33 147.208 190.33C146.527 190.33 145.976 190.871 145.976 191.538C145.976 192.205 146.527 192.746 147.208 192.746Z" fill="#252F71"/>
<path d="M159.741 290.164H150.694C150.16 290.164 149.728 290.588 149.728 291.111V293.435C149.728 293.959 150.16 294.383 150.694 294.383H159.741C160.275 294.383 160.708 293.959 160.708 293.435V291.111C160.708 290.588 160.275 290.164 159.741 290.164Z" fill="#252F71"/>
<path d="M182.113 188.655H128.322C125.972 188.655 124.067 190.523 124.067 192.827V292.338C124.067 294.642 125.972 296.509 128.322 296.509H182.113C184.463 296.509 186.368 294.642 186.368 292.338V192.827C186.368 190.523 184.463 188.655 182.113 188.655Z" stroke="#252F71" stroke-width="4"/>
<path d="M340.026 155.825C340.871 155.825 341.556 155.153 341.556 154.324C341.556 153.495 340.871 152.824 340.026 152.824C339.181 152.824 338.496 153.495 338.496 154.324C338.496 155.153 339.181 155.825 340.026 155.825Z" fill="#252F71"/>
<path d="M180.453 198.577H129.982C129.11 198.577 128.404 199.269 128.404 200.123V232.982C128.404 233.836 129.11 234.528 129.982 234.528H180.453C181.324 234.528 182.031 233.836 182.031 232.982V200.123C182.031 199.269 181.324 198.577 180.453 198.577Z" fill="#F6F7FC"/>
<path d="M181.293 238.394H129.142C128.735 238.394 128.404 238.718 128.404 239.117V254.487C128.404 254.886 128.735 255.21 129.142 255.21H181.293C181.7 255.21 182.031 254.886 182.031 254.487V239.117C182.031 238.718 181.7 238.394 181.293 238.394Z" fill="#F6F7FC"/>
<path d="M181.293 259.076H129.142C128.735 259.076 128.404 259.4 128.404 259.799V275.168C128.404 275.568 128.735 275.892 129.142 275.892H181.293C181.7 275.892 182.031 275.568 182.031 275.168V259.799C182.031 259.4 181.7 259.076 181.293 259.076Z" fill="#F6F7FC"/>
<path d="M131.353 200.51H130.376V232.596H131.353V200.51Z" fill="#E0E3F6"/>
<path d="M145.188 219.591H141.626C141.437 219.591 141.284 219.741 141.284 219.926V231.781C141.284 231.967 141.437 232.117 141.626 232.117H145.188C145.377 232.117 145.53 231.967 145.53 231.781V219.926C145.53 219.741 145.377 219.591 145.188 219.591Z" fill="#ABABD2"/>
<path d="M136.934 217.609H133.481C133.262 217.609 133.085 217.783 133.085 217.998V231.728C133.085 231.943 133.262 232.117 133.481 232.117H136.934C137.153 232.117 137.331 231.943 137.331 231.728V217.998C137.331 217.783 137.153 217.609 136.934 217.609Z" fill="#ABABD2"/>
<path d="M153.018 215.013H149.706C149.448 215.013 149.239 215.218 149.239 215.47V231.659C149.239 231.912 149.448 232.117 149.706 232.117H153.018C153.276 232.117 153.485 231.912 153.485 231.659V215.47C153.485 215.218 153.276 215.013 153.018 215.013Z" fill="#ABABD2"/>
<path d="M161.55 218.293H158.06C157.851 218.293 157.682 218.458 157.682 218.663V231.747C157.682 231.951 157.851 232.117 158.06 232.117H161.55C161.759 232.117 161.928 231.951 161.928 231.747V218.663C161.928 218.458 161.759 218.293 161.55 218.293Z" fill="#ABABD2"/>
<path d="M169.659 214.999H166.349C166.091 214.999 165.881 215.204 165.881 215.457V231.658C165.881 231.912 166.091 232.117 166.349 232.117H169.659C169.918 232.117 170.127 231.912 170.127 231.658V215.457C170.127 215.204 169.918 214.999 169.659 214.999Z" fill="#ABABD2"/>
<path d="M177.687 208.717H174.72C174.367 208.717 174.081 208.997 174.081 209.343V231.49C174.081 231.836 174.367 232.117 174.72 232.117H177.687C178.04 232.117 178.326 231.836 178.326 231.49V209.343C178.326 208.997 178.04 208.717 177.687 208.717Z" fill="#ABABD2"/>
<path d="M180.059 232.596V231.638H130.376V232.596H180.059Z" fill="#E0E3F6"/>
<path d="M132.215 246.802H177.314" stroke="#E0E3F6" stroke-width="3" stroke-linejoin="round"/>
<path d="M132.354 243.078H178.22" stroke="#E0E3F6" stroke-width="3" stroke-linejoin="round"/>
<path d="M132.215 250.526C132.703 250.526 153.475 250.526 153.475 250.526" stroke="#E0E3F6" stroke-width="3" stroke-linejoin="round"/>
<path d="M132.215 267.484H158.88" stroke="#E0E3F6" stroke-width="3" stroke-linejoin="round"/>
<path d="M132.354 263.759H171.221" stroke="#E0E3F6" stroke-width="3" stroke-linejoin="round"/>
<path d="M132.215 271.208H165.304" stroke="#E0E3F6" stroke-width="3" stroke-linejoin="round"/>
<path fill-rule="evenodd" clip-rule="evenodd" d="M129.142 279.758C128.733 279.758 128.404 280.08 128.404 280.481V288.038H182.031V280.481C182.031 280.08 181.701 279.758 181.293 279.758H129.142Z" fill="#F6F7FC"/>
<path fill-rule="evenodd" clip-rule="evenodd" d="M124.067 288.038H186.368H124.067Z" fill="#E0E3F6"/>
<path d="M124.067 288.038H186.368" stroke="#252F71" stroke-width="4" stroke-linecap="round" stroke-linejoin="round"/>
<path d="M132.354 284.441H171.221" stroke="#E0E3F6" stroke-width="3" stroke-linejoin="round"/>
</g>
<defs>
<clipPath id="clip0_51_135">
<rect width="586" height="383" rx="50" fill="white"/>
</clipPath>
</defs>
</svg>
