<svg width="133" height="114" viewBox="0 0 133 114" fill="none" xmlns="http://www.w3.org/2000/svg">
<path d="M66.5 34.5801C51.8105 34.5801 39.9 44.789 39.9 57.3801C39.9 68.064 48.4827 77.0035 60.0537 79.4771C59.9304 79.1695 59.85 78.8121 59.85 78.3691V74.4729C58.7708 74.4729 56.9614 74.4729 56.507 74.4729C54.688 74.4729 53.0698 73.802 52.2843 72.5551C51.4128 71.1705 51.2632 69.052 49.1033 67.7565C48.4633 67.3242 48.951 66.8326 49.6894 66.8991C51.0526 67.2292 52.1831 68.032 53.2471 69.2206C54.3056 70.4117 54.8043 70.6825 56.7841 70.6825C57.7442 70.6825 59.1809 70.635 60.533 70.4521C61.2604 68.8691 62.517 67.4121 64.0534 66.7245C55.195 65.9431 50.9681 62.1657 50.9681 57.0381C50.9681 54.8305 52.0654 52.6942 53.9288 50.8951C53.3178 49.1091 52.5489 45.4671 54.1643 44.0801C58.1501 44.0801 60.5594 46.296 61.1385 46.8945C63.1238 46.3102 65.3058 45.9801 67.5973 45.9801C69.8943 45.9801 72.0833 46.3102 74.0741 46.898C74.6463 46.3031 77.0583 44.0801 81.0524 44.0801C82.6748 45.4695 81.8975 49.127 81.2783 50.9082C83.132 52.7037 84.2223 54.8341 84.2223 57.0381C84.2223 62.1621 80.0023 65.9372 71.1578 66.7221C73.5906 67.8111 75.3667 70.8701 75.3667 73.175V78.3691C75.3667 78.5675 75.3154 78.71 75.2891 78.8786C85.6548 75.7649 93.1 67.329 93.1 57.3801C93.1 44.789 81.1896 34.5801 66.5 34.5801Z" fill="white" fill-opacity="0.36"/>
</svg>
