<svg width="63" height="55" viewBox="0 0 63 55" fill="none" xmlns="http://www.w3.org/2000/svg">
<path d="M31.8504 18.5528C37.5014 18.5528 42.0965 22.5621 42.0965 27.492C42.0965 32.4203 37.5014 36.4313 31.8504 36.4313C26.2001 36.4313 21.6018 32.4197 21.6018 27.492C21.6018 22.5621 26.2001 18.5528 31.8504 18.5528ZM31.8504 12.335C22.2534 12.335 14.4749 19.1223 14.4749 27.492C14.4749 35.8641 22.2534 42.6486 31.8504 42.6486C41.4442 42.6486 49.2253 35.8641 49.2253 27.492C49.2253 19.1223 41.4461 12.335 31.8504 12.335Z" fill="white" fill-opacity="0.3"/>
<path d="M35.1914 14.4277C35.1914 15.5471 34.1559 16.4495 32.8762 16.4495H30.2696C28.9892 16.4495 27.9523 15.5471 27.9523 14.4277V9.04567C27.9523 7.92906 28.9886 7.02271 30.2696 7.02271H32.8762C34.1552 7.02271 35.1914 7.92906 35.1914 9.04567V14.4277Z" fill="white" fill-opacity="0.3"/>
<path d="M35.1914 45.9393C35.1914 47.0553 34.1559 47.9594 32.8762 47.9594H30.2696C28.9892 47.9594 27.9523 47.0576 27.9523 45.9393V40.5567C27.9523 39.4384 28.9886 38.5366 30.2696 38.5366H32.8762C34.1552 38.5366 35.1914 39.4367 35.1914 40.5567V45.9393Z" fill="white" fill-opacity="0.3"/>
<path d="M23.5423 15.9092C24.4473 16.6981 24.4453 17.9769 23.5423 18.7652L21.6982 20.3722C20.7946 21.1623 19.3285 21.1623 18.4216 20.3722L14.0582 16.5664C13.1532 15.7752 13.1532 14.4987 14.0582 13.7115L15.9003 12.1005C16.8066 11.3116 18.2713 11.3116 19.1776 12.1005L23.5423 15.9092Z" fill="white" fill-opacity="0.3"/>
<path d="M49.0849 38.1902C49.9931 38.9819 49.9892 40.2578 49.0849 41.0444L47.2408 42.6549C46.3365 43.4449 44.8724 43.4449 43.9674 42.6549L39.6033 38.8496C38.6984 38.0572 38.6984 36.7791 39.6033 35.9907L41.4468 34.3831C42.3517 33.5936 43.8139 33.5936 44.7201 34.3831L49.0849 38.1902Z" fill="white" fill-opacity="0.3"/>
<path d="M18.7005 34.3814C19.6068 33.5919 21.0735 33.5919 21.9778 34.3814L23.8199 35.989C24.7255 36.7785 24.7262 38.0544 23.8199 38.8496L19.4559 42.6515C18.5496 43.4432 17.0855 43.4432 16.1812 42.6515L14.3371 41.0444C13.4335 40.2555 13.4308 38.9785 14.3371 38.1884L18.7005 34.3814Z" fill="white" fill-opacity="0.3"/>
<path d="M44.2437 12.1006C45.1494 11.31 46.6135 11.3117 47.5171 12.1006L49.3638 13.7077C50.2675 14.4989 50.2675 15.7753 49.3638 16.5665L44.9984 20.3724C44.0928 21.163 42.6274 21.163 41.7231 20.3724L39.8803 18.7654C38.9747 17.977 38.9727 16.6983 39.8803 15.9065L44.2437 12.1006Z" fill="white" fill-opacity="0.3"/>
<path d="M46.139 30.6494C44.8586 30.6494 43.8231 29.7431 43.8231 28.627V26.3537C43.8231 25.2382 44.8573 24.333 46.139 24.333H52.309C53.59 24.333 54.6289 25.2376 54.6289 26.3537V28.6293C54.6289 29.7425 53.5913 30.6511 52.309 30.6511L46.139 30.6494Z" fill="white" fill-opacity="0.3"/>
<path d="M10.7014 30.6494C9.42175 30.6494 8.38684 29.7431 8.38684 28.627V26.3537C8.38684 25.2382 9.42175 24.333 10.7014 24.333H16.8748C18.1551 24.333 19.1894 25.2376 19.1894 26.3537V28.6293C19.1894 29.7425 18.1551 30.6511 16.8748 30.6511L10.7014 30.6494Z" fill="white" fill-opacity="0.3"/>
</svg>
