<svg width="720" height="434" viewBox="0 0 720 434" fill="none" xmlns="http://www.w3.org/2000/svg">
<g clip-path="url(#clip0_71_3)">
<path d="M328.645 26.7813C328.645 26.7813 326.449 32.625 320.117 27.5078C313.777 22.3945 312.074 27.5078 312.074 27.5078C312.074 27.5078 315.484 32.8711 316.461 35.0625C317.43 37.2578 322.797 40.4258 324.258 42.3711C325.719 44.3242 324.258 58.2109 324.258 58.2109L341.312 63.3281C341.312 63.3281 342.289 51.875 344.242 49.9258C346.187 47.9766 351.551 45.457 353.496 44.2813C355.449 43.1016 362.27 39.207 362.027 38.2266C361.781 37.2578 363.5 26.1289 362.031 25.2305C360.562 24.3398 357.398 21.9063 355.688 23.8516C353.984 25.8047 354.719 16.7891 353.496 16.7891C352.277 16.7891 341.801 16.0547 339.121 18.25C336.437 20.4414 332.055 22.3945 328.645 26.7813Z" fill="#875A53"/>
<path d="M35.5039 110.602C35.5039 110.602 47.6836 111.574 50.3672 111.332C53.0469 111.09 53.7773 107.434 54.9922 103.047C56.2148 98.6641 58.8984 99.8789 61.4766 99.6367C64.0586 99.3906 60.6016 106.707 61.4766 107.434C62.3555 108.164 67.1797 121.32 68.1523 123.027C69.1289 124.73 82.0391 136.434 82.0391 136.434L68.8867 147.398C68.8867 147.398 58.8984 135.457 55.2383 135.457C51.582 135.457 32.0898 131.801 32.0898 131.801L20.8789 124.492C20.8789 124.492 14.7891 109.629 35.5039 110.602Z" fill="#875A53"/>
<path d="M406.418 187.926C406.418 187.926 419.016 187.926 419.016 180.875C419.016 173.824 417.504 167.27 419.016 161.227C420.527 155.184 405.914 115.578 371.66 131.348C337.398 147.121 356.434 203.211 384.254 200.523C412.074 197.832 406.418 187.926 406.418 187.926Z" fill="#F794B9"/>
<path d="M171.809 355.082C223.703 355.082 310.863 355.082 310.863 355.082L306.832 330.898C306.832 330.898 299.781 309.238 310.863 297.648C321.949 286.062 315.898 259.359 315.898 259.359C315.898 259.359 313.379 247.773 313.883 239.711C314.387 231.652 327.992 184.297 330.008 175.227C332.023 166.16 333.027 132.906 333.531 127.367C334.035 121.824 342.605 79.5078 343.109 73.9609C343.613 68.4219 346.129 56.8359 346.129 56.8359C346.129 56.8359 321.949 51.7969 322.453 53.8086C322.957 55.8242 309.352 116.785 309.352 116.785C309.352 116.785 309.352 123.336 306.328 128.375C303.309 133.41 305.824 139.461 297.762 168.676C289.703 197.895 269.551 212.004 269.551 212.004L239.324 221.07C239.324 221.07 228.742 219.563 223.703 221.07C218.668 222.578 204.559 218.219 204.559 218.219L144.102 186.812C144.102 186.812 142.086 180.266 140.578 180.77C139.066 181.273 132.008 174.723 132.008 174.723L79.1133 131.395C79.1133 131.395 68.0273 142.48 61.4766 143.992C73.0156 158.23 111.855 191.348 111.855 191.348C111.855 191.348 125.965 206.461 132.008 215.023C138.055 223.586 198.008 263.395 198.008 263.395C198.008 263.395 195.488 290.094 201.539 298.656C201.539 298.656 198.008 315.785 188.941 325.359C179.875 334.93 171.809 355.082 171.809 355.082Z" fill="#F794B9"/>
<rect x="187" y="400" width="547" height="34" rx="17" fill="black"/>
<path d="M180.875 159.441C186.531 151.91 185.414 140.465 185.414 140.465C185.414 140.465 193.473 139.965 191.961 133.914C190.453 127.871 180.883 130.387 180.883 130.387C180.883 130.387 180.379 121.32 189.949 124.848C199.52 128.375 201.539 120.125 201.539 120.125C201.539 120.125 208.59 110.738 208.59 115.273C208.59 119.805 215.641 116.281 220.18 117.035C224.711 117.793 227.734 122.328 231.762 118.797C235.793 115.273 242.348 115.273 242.348 115.273C242.348 115.273 251.926 112.25 248.145 108.727C244.359 105.199 260.988 112.25 260.484 118.293C260.484 118.293 267.031 121.32 269.047 118.797C271.063 116.281 278.648 119.805 276.113 125.855C273.578 131.898 272.109 132.906 276.621 135.426C281.141 137.949 282.652 143.488 282.148 148.523C281.645 153.562 290.711 157.086 290.207 155.074C292.219 162.129 285.672 161.625 285.672 161.625C285.672 161.625 289.703 171.699 286.68 176.734C283.656 181.777 286.492 193.562 287.598 191.75C288.707 189.941 281.645 191.941 281.645 191.941C281.645 191.941 281.164 201.926 276.113 201.926C271.063 201.926 261.996 207.973 261.996 207.973L234.801 211.5L225.215 214.52C225.215 214.52 225.719 206.965 220.18 207.469C214.633 207.973 216.145 214.52 216.145 214.52C216.145 214.52 210.102 203.969 210.605 204.207C211.109 204.441 202.043 202.934 200.531 199.91C199.016 196.887 199.52 183.289 194.984 184.297C190.453 185.305 186.926 177.238 184.406 181.777C181.891 186.312 175.332 166.832 180.875 159.441Z" fill="#1B3A5D"/>
<path d="M546.48 136.543C546.48 136.543 535.902 135.031 527.836 140.57C519.777 146.113 494.59 172.813 498.113 219.164C501.641 265.512 576.207 238.809 576.207 238.809C576.207 238.809 596.863 145.105 546.48 136.543Z" fill="#1B3A5D"/>
<path d="M548.324 150.984C548.324 150.984 541.441 148.301 538.418 150.984C535.398 153.672 517.766 186.918 517.262 189.941C516.758 192.965 526.828 214.129 540.937 215.137C555.047 216.141 567.133 192.461 567.133 192.461C567.133 192.461 569.828 154.848 548.324 150.984Z" fill="#F7B5A2"/>
<path d="M592.324 354.684C589.805 350.652 576.207 329.996 576.207 329.996C576.207 329.996 593.836 280.629 599.379 249.391C611.973 230.246 638.68 181.379 639.684 178.57C640.691 175.766 652.277 128.477 652.277 125.457C652.277 122.434 659.336 92.2031 661.852 90.6914C664.371 89.1836 665.379 83.1367 669.91 74.0703C674.445 65 667.395 56.9414 666.891 54.4219C666.387 51.9062 657.824 47.3672 657.824 47.3672C657.824 47.3672 660.844 26.7109 657.824 24.6953C654.797 22.6836 649.254 51.9062 649.254 51.9062C649.254 51.9062 646.234 31.7539 641.699 31.2461C637.168 30.7422 643.715 56.9414 641.699 58.957C639.684 60.9726 637.672 63.9922 637.672 63.9922L641.699 90.6914C641.699 90.6914 625.578 138.559 622.555 145.609C619.531 152.66 599.883 186.918 588.293 209.59C576.711 232.262 560.082 228.23 560.082 228.23C556.055 227.223 558.07 198.508 558.07 198.508L524.313 198.004C524.313 198.004 526.328 222.188 522.297 224.703C522.297 224.703 516.254 226.719 511.211 221.18C506.172 215.641 496.605 198.004 496.605 198.004C496.605 198.004 481.488 152.957 480.984 149.789C480.48 146.617 474.941 74.0703 474.941 74.0703L471.41 54.4219C471.41 54.4219 468.387 48.375 466.371 47.3672C464.359 46.3594 466.371 21.1719 463.352 21.1719C460.328 21.1719 460.328 43.3359 460.328 43.3359L453.277 21.1719C453.277 21.1719 448.234 20.1641 449.242 25.7031C450.25 31.2461 452.773 44.3437 452.773 44.3437C452.773 44.3437 445.215 44.8477 445.215 49.3828C441.184 52.9141 445.215 60.4687 445.215 60.4687C445.215 60.4687 453.781 76.0859 454.789 79.6133C455.797 83.1367 457.305 93.7187 456.301 95.2305C455.293 96.7422 455.797 151.652 454.789 158.707C453.781 165.762 474.941 247.879 474.941 247.879C474.941 247.879 483.504 283.145 486.523 299.27C489.547 315.387 493.582 323.953 488.539 336.043L479.977 354.684H592.324Z" fill="#F7B5A2"/>
<path d="M484.512 338.062C484.512 338.062 487.531 324.961 487.027 321.434C486.523 317.91 480.094 278.473 480.094 278.473C505.398 275.309 509.672 219.312 509.672 219.312L519.176 225.047C519.176 225.047 504.664 275.082 539.086 271.555C573.508 268.031 560.082 228.23 560.082 228.23C560.082 228.23 564.617 225.207 574.395 225.383C573.59 260.316 598.875 271.555 598.875 271.555C598.875 271.555 582.25 304.809 585.777 309.34C589.301 313.875 584.77 320.426 584.77 320.426C584.77 320.426 583.762 324.457 584.77 328.488C585.777 332.516 588.797 337.559 588.797 337.559C588.797 337.559 593.836 347.129 592.324 354.684C555.551 354.684 479.977 354.684 479.977 354.684C479.977 354.684 480.48 340.074 484.512 338.062Z" fill="#F794B9"/>
<path d="M443.199 348.133C443.703 344.105 446.723 304.809 449.242 296.75C451.762 288.688 453.277 260.98 452.773 252.41C452.266 243.848 457.211 213.117 457.211 213.117C457.09 211.605 460.852 163.242 464.887 151.652C468.918 140.066 475.969 109.836 475.969 105.305C475.969 100.77 481.004 76.0859 481.004 76.0859C481.004 76.0859 493.098 71.5469 496.121 67.5195C499.145 63.4883 503.172 50.8945 503.172 50.8945C503.172 50.8945 503.172 42.332 507.207 40.8203C511.238 39.3086 507.207 33.2656 507.207 33.2656L493.602 38.8047C493.602 38.8047 483.027 46.8633 480 46.8633C476.977 46.8633 466.902 67.0156 466.902 67.0156L446.246 135.031C446.246 135.031 434.656 195.488 429.621 209.59C429.621 209.59 423.047 214.883 417 213.117C410.941 211.352 409.945 174.832 413.98 173.316C418.008 171.805 418.008 162.738 413.98 163.242C409.945 163.746 405.41 160.219 405.41 160.219C405.41 160.219 398.863 150.141 394.332 146.113C389.793 142.082 374.684 143.238 374.684 143.238C374.684 143.238 365.609 146.113 363.598 150.141C363.598 150.141 359.566 167.27 363.598 178.859C367.625 190.445 378.711 199.012 378.711 199.012C378.711 199.012 383.246 213.117 381.23 218.156C381.23 218.156 362.59 197.5 357.551 183.395C352.516 169.285 340.926 108.828 340.926 108.828L320.27 40.8203C320.27 40.8203 310.191 20.668 307.168 20.668C304.145 20.668 293.57 12.6055 293.57 12.6055L279.965 7.0625C279.965 7.0625 275.934 13.1055 279.965 14.6172C283.992 16.1328 283.992 24.6953 283.992 24.6953C283.992 24.6953 288.023 37.293 291.051 41.3242C294.074 45.3516 306.16 49.8867 306.16 49.8867C306.16 49.8867 311.199 74.5742 311.199 79.1094C311.199 83.6406 318.254 113.867 322.285 125.457C326.313 137.047 330.082 185.41 329.961 186.918C329.844 188.43 336.895 221.684 355.539 250.902C355.035 268.535 363.094 287.176 363.094 287.176C363.094 287.176 366.113 308.84 361.582 316.902C357.047 324.961 344.953 350.148 344.449 354.684H443.426L443.199 348.133Z" fill="#D89B86"/>
<path d="M381.777 218.156C381.777 218.156 363.133 197.5 358.098 183.395C358.098 183.395 343.262 177.352 330.504 186.918C329.293 187.828 337.441 221.684 356.082 250.902C355.578 268.535 363.637 287.176 363.637 287.176C363.637 287.176 366.66 308.84 362.129 316.902C357.594 324.961 345.5 350.148 344.996 354.684H443.969L443.742 348.133C444.246 344.105 447.27 304.809 449.789 296.75C452.305 288.688 453.816 260.98 453.313 252.41C452.809 243.848 457.758 213.117 457.758 213.117C457.637 211.605 457.363 185.84 461.395 174.254L439.109 170.395C439.109 170.395 435.203 195.488 430.164 209.59C430.164 209.59 423.59 214.883 417.547 213.117C417.547 213.117 423.551 228.734 402.895 228.734C382.238 228.734 381.777 218.156 381.777 218.156Z" fill="#1B3A5D"/>
<path d="M269.551 212.004C269.551 212.004 266.023 196.887 269.551 196.887C273.074 196.887 276.098 189.836 276.098 189.836L271.734 187.652C271.734 187.652 273.203 174.754 271.734 168.172C268.375 167.504 263.004 159.441 263.004 159.441C263.004 159.441 248.895 166.16 240.836 161.625C232.77 157.086 220.18 173.715 220.18 173.715C220.18 173.715 221.691 206.461 231.762 208.98C233.227 217.766 228.238 223.082 228.238 223.082C228.238 223.082 231.262 243.746 243.855 255.832C256.449 267.926 261.996 276.992 261.996 276.992C261.996 276.992 276.602 246.262 276.098 213.516C272.57 213.012 269.551 212.004 269.551 212.004Z" fill="#875A53"/>
<rect x="124" y="349" width="596" height="54" rx="27" fill="#1B3A5D"/>
</g>
<defs>
<clipPath id="clip0_71_3">
<rect width="720" height="434" fill="white"/>
</clipPath>
</defs>
</svg>
