<svg width="134" height="185" viewBox="0 0 134 185" fill="none" xmlns="http://www.w3.org/2000/svg">
<path d="M133.456 53.4414C133.456 60.6842 132.073 67.5202 129.306 73.9492C126.62 80.2969 122.877 85.8714 118.075 90.6729C113.355 95.3929 107.781 99.1364 101.352 101.903C95.0039 104.67 88.2087 106.054 80.9658 106.054C78.443 106.054 76.2051 106.501 74.252 107.396C72.3802 108.292 70.7933 109.553 69.4912 111.181C68.2705 112.727 67.3346 114.558 66.6836 116.674C66.0326 118.79 65.707 121.068 65.707 123.51V132.787H30.7949V123.021C30.8763 115.86 32.1377 109.105 34.5791 102.758C37.1019 96.4102 40.5605 90.917 44.9551 86.2783C49.431 81.5583 54.7207 77.8555 60.8242 75.1699C66.9277 72.403 73.6416 71.0195 80.9658 71.0195C83.4072 71.0195 85.6859 70.5719 87.8018 69.6768C89.9176 68.7816 91.7487 67.5609 93.2949 66.0146C94.9225 64.387 96.1839 62.5153 97.0791 60.3994C98.0557 58.2021 98.5439 55.8828 98.5439 53.4414C98.5439 51 98.0557 48.7214 97.0791 46.6055C96.1839 44.4896 94.9225 42.6585 93.2949 41.1123C91.7487 39.4847 89.9176 38.2233 87.8018 37.3281C85.6859 36.4329 83.4072 35.9854 80.9658 35.9854H0.765625V0.951172H80.9658C88.2087 0.951172 95.0039 2.33464 101.352 5.10156C107.781 7.86849 113.355 11.6527 118.075 16.4541C122.877 21.1742 126.62 26.708 129.306 33.0557C132.073 39.4033 133.456 46.1986 133.456 53.4414ZM69.2471 163.549C69.2471 166.479 68.6774 169.245 67.5381 171.85C66.4801 174.372 65.0153 176.57 63.1436 178.441C61.2718 180.313 59.0745 181.778 56.5518 182.836C54.029 183.975 51.3434 184.545 48.4951 184.545C45.6468 184.545 42.9206 183.975 40.3164 182.836C37.7936 181.778 35.5557 180.313 33.6025 178.441C31.7308 176.57 30.2253 174.372 29.0859 171.85C28.028 169.245 27.499 166.479 27.499 163.549C27.499 160.701 28.028 158.015 29.0859 155.492C30.2253 152.969 31.7308 150.772 33.6025 148.9C35.5557 147.029 37.7936 145.564 40.3164 144.506C42.9206 143.367 45.6468 142.797 48.4951 142.797C51.3434 142.797 54.029 143.367 56.5518 144.506C59.0745 145.564 61.2718 147.029 63.1436 148.9C65.0153 150.772 66.4801 152.969 67.5381 155.492C68.6774 158.015 69.2471 160.701 69.2471 163.549Z" fill="white"/>
<path d="M129.306 73.9492L124.713 71.9726L124.707 71.9868L124.701 72.001L129.306 73.9492ZM118.075 90.6729L121.611 94.2084L118.075 90.6729ZM101.352 101.903L99.375 97.3106L99.3643 97.3152L99.3536 97.3198L101.352 101.903ZM74.252 107.396L72.1687 102.851L72.1315 102.868L72.0947 102.886L74.252 107.396ZM69.4912 111.181L65.5869 108.057L65.5768 108.07L65.5668 108.082L69.4912 111.181ZM65.707 132.787V137.787H70.707V132.787H65.707ZM30.7949 132.787H25.7949V137.787H30.7949V132.787ZM30.7949 123.021L25.7952 122.965L25.7949 122.993V123.021H30.7949ZM34.5791 102.758L29.9326 100.911L29.9224 100.937L29.9124 100.963L34.5791 102.758ZM44.9551 86.2783L41.327 82.8379L41.3253 82.8396L44.9551 86.2783ZM60.8242 75.1699L62.8379 79.7465L62.8633 79.7353L62.8887 79.7238L60.8242 75.1699ZM97.0791 60.3994L92.51 58.3687L92.4918 58.4098L92.4743 58.4512L97.0791 60.3994ZM97.0791 46.6055L92.4743 48.5537L92.5056 48.6277L92.5393 48.7008L97.0791 46.6055ZM93.2949 41.1123L89.6699 44.5561L89.7582 44.649L89.8512 44.7373L93.2949 41.1123ZM0.765625 35.9854H-4.23438V40.9854H0.765625V35.9854ZM0.765625 0.951172V-4.04883H-4.23438V0.951172H0.765625ZM101.352 5.10156L99.3536 9.68504L99.3643 9.68968L99.375 9.69427L101.352 5.10156ZM118.075 16.4541L114.51 19.9593L114.54 19.9898L114.57 20.0197L118.075 16.4541ZM129.306 33.0557L124.701 35.0039L124.711 35.0288L124.722 35.0536L129.306 33.0557ZM67.5381 171.85L62.9573 169.846L62.9419 169.881L62.9271 169.916L67.5381 171.85ZM56.5518 182.836L54.6181 178.225L54.5556 178.251L54.4938 178.279L56.5518 182.836ZM40.3164 182.836L42.3205 178.255L42.2854 178.24L42.25 178.225L40.3164 182.836ZM33.6025 178.441L30.067 181.977L30.1046 182.015L30.143 182.051L33.6025 178.441ZM29.0859 171.85L24.4536 173.731L24.4897 173.82L24.5291 173.908L29.0859 171.85ZM29.0859 155.492L24.5291 153.434L24.5012 153.496L24.475 153.559L29.0859 155.492ZM33.6025 148.9L30.143 145.29L30.1046 145.327L30.067 145.365L33.6025 148.9ZM40.3164 144.506L42.25 149.117L42.2854 149.102L42.3205 149.087L40.3164 144.506ZM56.5518 144.506L54.4938 149.063L54.5556 149.091L54.6181 149.117L56.5518 144.506ZM67.5381 155.492L62.9271 157.426L62.9533 157.488L62.9812 157.55L67.5381 155.492ZM128.456 53.4414C128.456 60.0287 127.202 66.1898 124.713 71.9726L133.898 75.9258C136.943 68.8506 138.456 61.3398 138.456 53.4414H128.456ZM124.701 72.001C122.262 77.7648 118.879 82.7982 114.54 87.1373L121.611 94.2084C126.874 88.9447 130.978 82.829 133.911 75.8974L124.701 72.001ZM114.54 87.1373C110.289 91.3878 105.251 94.7818 99.375 97.3106L103.328 106.496C110.31 103.491 116.421 99.398 121.611 94.2084L114.54 87.1373ZM99.3536 97.3198C93.6652 99.7994 87.5534 101.054 80.9658 101.054V111.054C88.8639 111.054 96.3427 109.541 103.349 106.487L99.3536 97.3198ZM80.9658 101.054C77.8481 101.054 74.8796 101.609 72.1687 102.851L76.3352 111.942C77.5306 111.394 79.038 111.054 80.9658 111.054V101.054ZM72.0947 102.886C69.5403 104.107 67.3572 105.844 65.5869 108.057L73.3956 114.304C74.2294 113.262 75.2201 112.476 76.4092 111.907L72.0947 102.886ZM65.5668 108.082C63.9186 110.17 62.7151 112.569 61.9047 115.203L71.4625 118.144C71.9541 116.546 72.6224 115.284 73.4156 114.279L65.5668 108.082ZM61.9047 115.203C61.0929 117.842 60.707 120.621 60.707 123.51H70.707C70.707 121.516 70.9722 119.738 71.4625 118.144L61.9047 115.203ZM60.707 123.51V132.787H70.707V123.51H60.707ZM65.707 127.787H30.7949V137.787H65.707V127.787ZM35.7949 132.787V123.021H25.7949V132.787H35.7949ZM35.7946 123.078C35.8696 116.48 37.029 110.316 39.2458 104.553L29.9124 100.963C27.2464 107.895 25.883 115.241 25.7952 122.965L35.7946 123.078ZM39.2256 104.604C41.53 98.8062 44.6567 93.8634 48.5848 89.717L41.3253 82.8396C36.4644 87.9706 32.6737 94.0142 29.9326 100.911L39.2256 104.604ZM48.5832 89.7188C52.5902 85.4932 57.327 82.1713 62.8379 79.7465L58.8105 70.5934C52.1144 73.5397 46.2718 77.6233 41.327 82.8379L48.5832 89.7188ZM62.8887 79.7238C68.2854 77.2773 74.2868 76.0195 80.9658 76.0195V66.0195C72.9964 66.0195 65.5701 67.5287 58.7598 70.616L62.8887 79.7238ZM80.9658 76.0195C84.034 76.0195 86.9797 75.4536 89.75 74.2816L85.8536 65.0719C84.3921 65.6902 82.7805 66.0195 80.9658 66.0195V76.0195ZM89.75 74.2816C92.4284 73.1484 94.8061 71.5746 96.8305 69.5502L89.7594 62.4791C88.6913 63.5472 87.4069 64.4147 85.8536 65.0719L89.75 74.2816ZM96.8305 69.5502C98.9125 67.4681 100.537 65.0577 101.684 62.3476L92.4743 58.4512C91.8305 59.9729 90.9325 61.306 89.7594 62.4791L96.8305 69.5502ZM101.648 62.4301C102.913 59.5835 103.544 56.5714 103.544 53.4414H93.5439C93.5439 55.1943 93.198 56.8208 92.51 58.3687L101.648 62.4301ZM103.544 53.4414C103.544 50.3118 102.913 47.3143 101.619 44.5102L92.5393 48.7008C93.1982 50.1284 93.5439 51.6882 93.5439 53.4414H103.544ZM101.684 44.6573C100.527 41.9238 98.8762 39.518 96.7387 37.4873L89.8512 44.7373C90.9688 45.7991 91.8404 47.0554 92.4743 48.5537L101.684 44.6573ZM96.9199 37.6686C94.8893 35.531 92.4834 33.8798 89.75 32.7233L85.8536 41.933C87.3519 42.5669 88.6081 43.4384 89.6699 44.5561L96.9199 37.6686ZM89.75 32.7233C86.9797 31.5512 84.034 30.9854 80.9658 30.9854V40.9854C82.7805 40.9854 84.3921 41.3147 85.8536 41.933L89.75 32.7233ZM80.9658 30.9854H0.765625V40.9854H80.9658V30.9854ZM5.76562 35.9854V0.951172H-4.23438V35.9854H5.76562ZM0.765625 5.95117H80.9658V-4.04883H0.765625V5.95117ZM80.9658 5.95117C87.5534 5.95117 93.6652 7.20544 99.3536 9.68504L103.349 0.518082C96.3427 -2.53618 88.8639 -4.04883 80.9658 -4.04883V5.95117ZM99.375 9.69427C105.233 12.2154 110.262 15.6381 114.51 19.9593L121.641 12.9489C116.449 7.66719 110.328 3.52159 103.328 0.50885L99.375 9.69427ZM114.57 20.0197C118.891 24.2672 122.266 29.2478 124.701 35.0039L133.911 31.1075C130.975 24.1682 126.863 18.0811 121.58 12.8885L114.57 20.0197ZM124.722 35.0536C127.202 40.7421 128.456 46.8538 128.456 53.4414H138.456C138.456 45.5433 136.943 38.0646 133.889 31.0577L124.722 35.0536ZM64.2471 163.549C64.2471 165.81 63.8116 167.893 62.9573 169.846L72.1189 173.854C73.5432 170.598 74.2471 167.147 74.2471 163.549H64.2471ZM62.9271 169.916C62.1117 171.86 61.0053 173.509 59.608 174.906L66.6791 181.977C69.0253 179.631 70.8486 176.884 72.1491 173.783L62.9271 169.916ZM59.608 174.906C58.2108 176.303 56.5626 177.41 54.6181 178.225L58.4854 187.447C61.5865 186.146 64.3328 184.323 66.6791 181.977L59.608 174.906ZM54.4938 178.279C52.6368 179.118 50.6549 179.545 48.4951 179.545V189.545C52.032 189.545 55.4212 188.833 58.6097 187.393L54.4938 178.279ZM48.4951 179.545C46.3351 179.545 44.2914 179.117 42.3205 178.255L38.3123 187.417C41.5498 188.833 44.9585 189.545 48.4951 189.545V179.545ZM42.25 178.225C40.2865 177.402 38.5672 176.274 37.0621 174.831L30.143 182.051C32.5441 184.352 35.3008 186.154 38.3828 187.447L42.25 178.225ZM37.1381 174.906C35.7125 173.48 34.5452 171.79 33.6428 169.792L24.5291 173.908C25.9053 176.955 27.7491 179.659 30.067 181.977L37.1381 174.906ZM33.7183 169.968C32.9134 167.986 32.499 165.861 32.499 163.549H22.499C22.499 167.096 23.1426 170.504 24.4536 173.731L33.7183 169.968ZM32.499 163.549C32.499 161.337 32.9063 159.311 33.6969 157.426L24.475 153.559C23.1497 156.719 22.499 160.064 22.499 163.549H32.499ZM33.6428 157.55C34.5452 155.552 35.7125 153.861 37.1381 152.436L30.067 145.365C27.7491 147.683 25.9053 150.387 24.5291 153.434L33.6428 157.55ZM37.0621 152.51C38.5672 151.068 40.2865 149.94 42.25 149.117L38.3828 139.895C35.3008 141.187 32.5441 142.989 30.143 145.29L37.0621 152.51ZM42.3205 149.087C44.2914 148.224 46.3351 147.797 48.4951 147.797V137.797C44.9585 137.797 41.5498 138.509 38.3123 139.925L42.3205 149.087ZM48.4951 147.797C50.6549 147.797 52.6368 148.224 54.4938 149.063L58.6097 139.949C55.4212 138.509 52.032 137.797 48.4951 137.797V147.797ZM54.6181 149.117C56.5626 149.932 58.2108 151.039 59.608 152.436L66.6791 145.365C64.3328 143.019 61.5865 141.195 58.4854 139.895L54.6181 149.117ZM59.608 152.436C61.0053 153.833 62.1117 155.481 62.9271 157.426L72.1491 153.559C70.8486 150.457 69.0253 147.711 66.6791 145.365L59.608 152.436ZM62.9812 157.55C63.8199 159.407 64.2471 161.389 64.2471 163.549H74.2471C74.2471 160.012 73.5349 156.623 72.0949 153.434L62.9812 157.55Z" fill="#54A4FF" fill-opacity="0.6"/>
</svg>
