<svg width="250" height="248" viewBox="0 0 250 248" fill="none" xmlns="http://www.w3.org/2000/svg">
<path d="M125.115 53.4337C85.8255 53.4337 53.8646 85.139 53.8646 124.114C53.8646 146.095 63.8594 166.39 81.2552 179.779C91.2708 187.594 103.19 192.572 115.638 194.148C118.721 194.582 121.919 194.794 125.115 194.794C128.31 194.794 131.508 194.582 134.51 194.158C147.039 192.572 158.958 187.604 168.953 179.8C186.38 166.39 196.365 146.085 196.365 124.114C196.365 85.139 164.393 53.4337 125.115 53.4337ZM165.828 169.126V162.28C165.828 152.386 147.609 144.308 125.115 144.308C102.62 144.308 84.401 152.386 84.401 162.28V169.126C71.4635 157.707 64.0443 141.562 64.0443 124.114C64.0443 90.7035 91.4349 63.532 125.115 63.532C158.797 63.532 186.185 90.7035 186.185 124.114C186.185 141.551 178.776 157.676 165.828 169.126Z" fill="#1B3A5D"/>
<path d="M150.56 108.968C150.56 109.794 150.521 110.618 150.437 111.442C150.357 112.264 150.234 113.083 150.073 113.894C149.909 114.703 149.708 115.503 149.466 116.296C149.224 117.087 148.943 117.865 148.625 118.629C148.305 119.391 147.951 120.138 147.557 120.866C147.164 121.597 146.734 122.305 146.273 122.992C145.81 123.68 145.312 124.344 144.784 124.982C144.255 125.622 143.698 126.232 143.109 126.818C142.518 127.402 141.901 127.958 141.258 128.482C140.615 129.006 139.945 129.497 139.253 129.957C138.56 130.417 137.846 130.841 137.109 131.231C136.375 131.621 135.622 131.972 134.852 132.29C134.083 132.605 133.299 132.884 132.503 133.124C131.703 133.365 130.896 133.563 130.078 133.726C129.26 133.886 128.437 134.008 127.609 134.09C126.779 134.171 125.948 134.212 125.115 134.212C124.281 134.212 123.451 134.171 122.62 134.09C121.792 134.008 120.969 133.886 120.151 133.726C119.333 133.563 118.526 133.365 117.729 133.124C116.93 132.884 116.146 132.605 115.378 132.29C114.607 131.972 113.854 131.621 113.12 131.231C112.385 130.841 111.669 130.417 110.977 129.957C110.284 129.497 109.617 129.006 108.971 128.482C108.328 127.958 107.711 127.402 107.122 126.818C106.531 126.232 105.974 125.622 105.445 124.982C104.917 124.344 104.419 123.68 103.956 122.992C103.495 122.305 103.065 121.597 102.672 120.866C102.281 120.138 101.924 119.391 101.604 118.629C101.286 117.865 101.005 117.087 100.763 116.296C100.521 115.503 100.32 114.703 100.156 113.894C99.9948 113.083 99.8724 112.264 99.7917 111.442C99.7083 110.618 99.6693 109.794 99.6693 108.968C99.6693 108.141 99.7083 107.317 99.7917 106.493C99.8724 105.671 99.9948 104.855 100.156 104.044C100.32 103.233 100.521 102.432 100.763 101.641C101.005 100.848 101.286 100.073 101.604 99.3085C101.924 98.5438 102.281 97.7972 102.672 97.0687C103.065 96.3402 103.495 95.6324 103.956 94.9427C104.419 94.2555 104.917 93.5942 105.445 92.9535C105.974 92.3154 106.531 91.7032 107.122 91.1193C107.711 90.5329 108.328 89.9801 108.971 89.4557C109.617 88.9312 110.284 88.4378 110.977 87.9806C111.669 87.5207 112.385 87.0945 113.12 86.707C113.854 86.3169 114.607 85.963 115.378 85.6478C116.146 85.3301 116.93 85.0511 117.729 84.8134C118.526 84.5732 119.333 84.3717 120.151 84.2115C120.969 84.0487 121.792 83.9273 122.62 83.8472C123.451 83.7646 124.281 83.7258 125.115 83.7258C125.948 83.7258 126.779 83.7646 127.609 83.8472C128.437 83.9273 129.26 84.0487 130.078 84.2115C130.896 84.3717 131.703 84.5732 132.503 84.8134C133.299 85.0511 134.083 85.3301 134.852 85.6478C135.622 85.963 136.375 86.3169 137.109 86.707C137.846 87.0945 138.56 87.5207 139.253 87.9806C139.945 88.4378 140.615 88.9312 141.258 89.4557C141.901 89.9801 142.518 90.5329 143.109 91.1193C143.698 91.7032 144.255 92.3154 144.784 92.9535C145.312 93.5942 145.81 94.2555 146.273 94.9427C146.734 95.6324 147.164 96.3402 147.557 97.0687C147.951 97.7972 148.305 98.5438 148.625 99.3085C148.943 100.073 149.224 100.848 149.466 101.641C149.708 102.432 149.909 103.233 150.073 104.044C150.234 104.855 150.357 105.671 150.437 106.493C150.521 107.317 150.56 108.141 150.56 108.968Z" fill="#1B3A5D"/>
</svg>
