<svg width="512" height="505" viewBox="0 0 512 505" fill="none" xmlns="http://www.w3.org/2000/svg">
<path d="M245.245 108.806C161.323 108.806 93.0548 173.367 93.0548 252.731C93.0548 297.492 114.404 338.818 151.561 366.083C172.955 381.996 198.414 392.132 225.003 395.341C231.589 396.225 238.42 396.656 245.245 396.656C252.07 396.656 258.901 396.225 265.314 395.362C292.076 392.132 317.535 382.017 338.884 366.125C376.108 338.818 397.435 297.471 397.435 252.731C397.435 173.367 329.144 108.806 245.245 108.806ZM332.209 344.389V330.449C332.209 310.301 293.294 293.852 245.245 293.852C197.196 293.852 158.281 310.301 158.281 330.449V344.389C130.646 321.138 114.799 288.26 114.799 252.731C114.799 184.698 173.305 129.369 245.245 129.369C317.19 129.369 375.691 184.698 375.691 252.731C375.691 288.239 359.866 321.075 332.209 344.389Z" fill="white"/>
<path d="M299.596 221.89C299.596 223.573 299.513 225.251 299.335 226.929C299.162 228.602 298.901 230.27 298.556 231.921C298.205 233.568 297.777 235.199 297.26 236.814C296.742 238.423 296.142 240.007 295.463 241.564C294.779 243.116 294.022 244.636 293.182 246.119C292.342 247.608 291.425 249.049 290.44 250.449C289.45 251.848 288.388 253.2 287.258 254.499C286.129 255.804 284.939 257.045 283.682 258.239C282.419 259.428 281.101 260.559 279.727 261.627C278.353 262.695 276.923 263.694 275.444 264.631C273.964 265.567 272.44 266.43 270.866 267.224C269.297 268.018 267.69 268.734 266.043 269.381C264.402 270.023 262.728 270.591 261.026 271.08C259.318 271.569 257.594 271.974 255.847 272.306C254.1 272.632 252.343 272.879 250.574 273.047C248.799 273.21 247.025 273.295 245.245 273.295C243.465 273.295 241.69 273.21 239.916 273.047C238.147 272.879 236.389 272.632 234.643 272.306C232.896 271.974 231.172 271.569 229.47 271.08C227.762 270.591 226.088 270.023 224.447 269.381C222.8 268.734 221.193 268.018 219.624 267.224C218.055 266.43 216.526 265.567 215.046 264.631C213.566 263.694 212.142 262.695 210.763 261.627C209.389 260.559 208.071 259.428 206.814 258.239C205.551 257.045 204.36 255.804 203.231 254.499C202.102 253.2 201.04 251.848 200.05 250.449C199.065 249.049 198.147 247.608 197.307 246.119C196.473 244.636 195.711 243.116 195.027 241.564C194.348 240.007 193.747 238.423 193.23 236.814C192.713 235.199 192.284 233.568 191.934 231.921C191.589 230.27 191.328 228.602 191.155 226.929C190.977 225.251 190.894 223.573 190.894 221.89C190.894 220.206 190.977 218.528 191.155 216.85C191.328 215.177 191.589 213.515 191.934 211.863C192.284 210.212 192.713 208.581 193.23 206.971C193.747 205.356 194.348 203.778 195.027 202.221C195.711 200.664 196.473 199.144 197.307 197.66C198.147 196.177 199.065 194.735 200.05 193.331C201.04 191.932 202.102 190.585 203.231 189.28C204.36 187.981 205.551 186.734 206.814 185.546C208.071 184.351 209.389 183.226 210.763 182.158C212.142 181.09 213.566 180.085 215.046 179.154C216.526 178.218 218.055 177.35 219.624 176.561C221.193 175.766 222.8 175.046 224.447 174.404C226.088 173.757 227.762 173.189 229.47 172.705C231.172 172.216 232.896 171.805 234.643 171.479C236.389 171.148 238.147 170.901 239.916 170.737C241.69 170.569 243.465 170.49 245.245 170.49C247.025 170.49 248.799 170.569 250.574 170.737C252.343 170.901 254.1 171.148 255.847 171.479C257.594 171.805 259.318 172.216 261.026 172.705C262.728 173.189 264.402 173.757 266.043 174.404C267.69 175.046 269.297 175.766 270.866 176.561C272.44 177.35 273.964 178.218 275.444 179.154C276.923 180.085 278.353 181.09 279.727 182.158C281.101 183.226 282.419 184.351 283.682 185.546C284.939 186.734 286.129 187.981 287.258 189.28C288.388 190.585 289.45 191.932 290.44 193.331C291.425 194.735 292.342 196.177 293.182 197.66C294.022 199.144 294.779 200.664 295.463 202.221C296.142 203.778 296.742 205.356 297.26 206.971C297.777 208.581 298.205 210.212 298.556 211.863C298.901 213.515 299.162 215.177 299.335 216.85C299.513 218.528 299.596 220.206 299.596 221.89Z" fill="white"/>
</svg>
